<svg width="250" height="213" viewBox="0 0 250 213" fill="none" xmlns="http://www.w3.org/2000/svg">
<circle cx="106.5" cy="106.5" r="106.5" fill="#EE6C4D"/>
<g filter="url(#filter0_d)">
<path d="M154.156 113.188C154.156 123.188 156.063 130.375 159.875 134.75C163.688 139.125 169.813 141.312 178.25 141.312C186.75 141.312 192.875 139.125 196.625 134.75C200.375 130.375 202.25 123.188 202.25 113.188V79.7188H194V113.188C194 117.563 193.594 121.188 192.781 124.063C191.969 126.875 190.781 128.969 189.219 130.344C187.656 131.719 186.031 132.656 184.344 133.156C182.656 133.594 180.625 133.812 178.25 133.812C175.938 133.812 173.969 133.594 172.344 133.156C170.656 132.656 169.031 131.75 167.469 130.438C165.844 129.062 164.625 126.938 163.813 124.063C163 121.188 162.594 117.563 162.594 113.188L162.594 79.7188H154.156L154.156 113.188Z" fill="#181A19"/>
</g>
<path d="M54 183.214C54 190.272 58.704 196 64.5 196C70.296 196 75 190.272 75 183.214V29.7857C75 22.728 70.296 17 64.5 17C58.704 17 54 22.728 54 29.7857V183.214Z" fill="#181A19"/>
<path d="M129.834 56.469L70.1477 17.2329C66.0294 14.5256 60.3587 15.8702 57.4899 20.2343C54.621 24.5983 55.6351 30.3374 59.7535 33.0447L119.439 72.2808C123.558 74.9881 129.228 73.6435 132.097 69.2794C134.966 64.9154 133.952 59.1763 129.834 56.469Z" fill="#D9D9D9"/>
<path d="M71.3843 194.225L139.009 146.985C143.675 143.725 144.79 137.254 141.497 132.54C138.204 127.826 131.744 126.645 127.078 129.905L59.4532 177.145C54.787 180.405 53.6726 186.876 56.9656 191.59C60.2586 196.304 66.7182 197.485 71.3843 194.225Z" fill="#181A19"/>
<path d="M68.7533 93.6842C65.5775 98.4778 68.4949 106.009 75.2655 110.494L124.327 142.998C131.098 147.484 139.17 147.234 142.346 142.44C145.522 137.646 142.605 130.116 135.834 125.63L86.7721 93.126C80.0015 88.6405 71.9291 88.8905 68.7533 93.6842Z" fill="#D9D9D9"/>
<path d="M132.266 58.5804C128.973 53.8666 121.45 53.4297 115.473 57.6051L72.1664 87.8614C66.19 92.0367 64.0125 99.2511 67.3057 103.965C70.599 108.679 78.1221 109.116 84.0985 104.94L127.405 74.6839C133.382 70.5085 135.559 63.2942 132.266 58.5804Z" fill="#181A19"/>
<g filter="url(#filter1_d)">
<path d="M236.781 116.188C236.781 111.5 235.75 107.562 233.688 104.375C231.688 101.125 228.656 99.5 224.594 99.5C220.406 99.5 217.312 101.094 215.312 104.281C213.312 107.469 212.312 111.438 212.312 116.188C212.312 120.938 213.312 124.906 215.312 128.094C217.312 131.219 220.406 132.781 224.594 132.781C228.656 132.781 231.688 131.219 233.688 128.094C235.75 124.906 236.781 120.938 236.781 116.188ZM240.156 100.25C243.281 104.25 244.844 109.562 244.844 116.188C244.844 122.812 243.281 128.156 240.156 132.219C237.031 136.281 232.125 138.312 225.438 138.312C221.438 138.312 217.062 136.438 212.312 132.688V153.594H204.719V95.2812H212.312V100.625C214.625 98.5 216.75 96.9062 218.688 95.8438C220.625 94.7812 222.875 94.25 225.438 94.25C232.125 94.25 237.031 96.25 240.156 100.25Z" fill="#D9D9D9"/>
</g>
<defs>
<filter id="filter0_d" x="150.156" y="79.7188" width="56.0938" height="69.5938" filterUnits="userSpaceOnUse" color-interpolation-filters="sRGB">
<feFlood flood-opacity="0" result="BackgroundImageFix"/>
<feColorMatrix in="SourceAlpha" type="matrix" values="0 0 0 0 0 0 0 0 0 0 0 0 0 0 0 0 0 0 127 0"/>
<feOffset dy="4"/>
<feGaussianBlur stdDeviation="2"/>
<feColorMatrix type="matrix" values="0 0 0 0 0 0 0 0 0 0 0 0 0 0 0 0 0 0 0.25 0"/>
<feBlend mode="normal" in2="BackgroundImageFix" result="effect1_dropShadow"/>
<feBlend mode="normal" in="SourceGraphic" in2="effect1_dropShadow" result="shape"/>
</filter>
<filter id="filter1_d" x="200.719" y="94.25" width="48.125" height="67.3438" filterUnits="userSpaceOnUse" color-interpolation-filters="sRGB">
<feFlood flood-opacity="0" result="BackgroundImageFix"/>
<feColorMatrix in="SourceAlpha" type="matrix" values="0 0 0 0 0 0 0 0 0 0 0 0 0 0 0 0 0 0 127 0"/>
<feOffset dy="4"/>
<feGaussianBlur stdDeviation="2"/>
<feColorMatrix type="matrix" values="0 0 0 0 0 0 0 0 0 0 0 0 0 0 0 0 0 0 0.25 0"/>
<feBlend mode="normal" in2="BackgroundImageFix" result="effect1_dropShadow"/>
<feBlend mode="normal" in="SourceGraphic" in2="effect1_dropShadow" result="shape"/>
</filter>
</defs>
</svg>
