<svg width="399" height="126" viewBox="0 0 399 126" fill="none" xmlns="http://www.w3.org/2000/svg">
<path d="M37.44 28.8C43.968 28.8 48.896 30.24 52.224 33.12C55.552 36 57.216 40.192 57.216 45.696C57.216 48.704 56.48 51.392 55.008 53.76C53.6 56.128 51.488 57.984 48.672 59.328C50.784 60.032 52.736 61.12 54.528 62.592C56.384 64 57.888 65.824 59.04 68.064C60.192 70.304 60.768 73.024 60.768 76.224C60.768 80.128 60.096 83.36 58.752 85.92C57.408 88.48 55.648 90.496 53.472 91.968C51.296 93.44 48.896 94.496 46.272 95.136C43.648 95.712 41.024 96 38.4 96H9.408V28.8H37.44ZM35.712 38.784H19.776V56.64H36.864C39.488 56.576 41.792 55.776 43.776 54.24C45.824 52.704 46.848 50.528 46.848 47.712C46.848 44.512 45.76 42.24 43.584 40.896C41.472 39.488 38.848 38.784 35.712 38.784ZM37.344 66.624H19.776V86.016H37.824C41.472 86.016 44.448 85.216 46.752 83.616C49.056 81.952 50.208 79.424 50.208 76.032C50.208 73.6 49.536 71.712 48.192 70.368C46.848 69.024 45.184 68.064 43.2 67.488C41.28 66.912 39.328 66.624 37.344 66.624ZM115.458 89.376H115.362C113.314 91.36 110.498 93.12 106.914 94.656C103.33 96.192 99.586 96.96 95.682 96.96C90.434 96.96 85.794 95.872 81.762 93.696C77.794 91.456 74.69 88.416 72.45 84.576C70.21 80.672 69.09 76.256 69.09 71.328C69.09 65.696 70.274 60.896 72.642 56.928C75.01 52.896 78.146 49.824 82.05 47.712C85.954 45.536 90.21 44.448 94.818 44.448C99.042 44.448 102.882 45.504 106.338 47.616C109.794 49.664 112.546 52.512 114.594 56.16C116.642 59.808 117.666 64.064 117.666 68.928L117.57 73.152H78.978C79.554 77.696 81.41 81.312 84.546 84C87.746 86.624 91.778 87.936 96.642 87.936C100.162 87.936 103.01 87.296 105.186 86.016C107.362 84.672 109.154 83.392 110.562 82.176L115.458 89.376ZM94.818 53.568C91.042 53.568 87.746 54.464 84.93 56.256C82.114 57.984 80.258 60.992 79.362 65.28H107.586V64.608C107.394 62.432 106.658 60.512 105.378 58.848C104.162 57.184 102.626 55.904 100.77 55.008C98.914 54.048 96.93 53.568 94.818 53.568ZM175.356 45.6V96H165.372V88.224C163.836 90.336 161.564 92.32 158.556 94.176C155.548 96.032 152.06 96.96 148.092 96.96C143.868 96.96 139.996 95.84 136.476 93.6C133.02 91.36 130.268 88.256 128.22 84.288C126.172 80.32 125.148 75.776 125.148 70.656C125.148 65.536 126.204 61.024 128.316 57.12C130.428 53.152 133.34 50.08 137.052 47.904C140.764 45.664 144.988 44.544 149.724 44.544C153.244 44.544 156.316 45.312 158.94 46.848C161.628 48.384 163.772 50.176 165.372 52.224V45.6H175.356ZM150.396 87.84C153.468 87.84 156.156 87.104 158.46 85.632C160.764 84.096 162.556 82.048 163.836 79.488C165.116 76.864 165.756 73.92 165.756 70.656C165.756 67.456 165.116 64.576 163.836 62.016C162.556 59.456 160.764 57.44 158.46 55.968C156.156 54.432 153.468 53.664 150.396 53.664C147.452 53.664 144.828 54.4 142.524 55.872C140.22 57.344 138.428 59.36 137.148 61.92C135.868 64.48 135.228 67.392 135.228 70.656C135.228 73.92 135.868 76.864 137.148 79.488C138.428 82.048 140.22 84.096 142.524 85.632C144.828 87.104 147.452 87.84 150.396 87.84ZM205.29 96H195.402V55.2H184.938V45.6H195.402V32.736H205.29V45.6H217.002V55.2H205.29V96ZM256.969 58.848C255.177 57.056 253.129 55.584 250.825 54.432C248.585 53.28 246.505 52.704 244.585 52.704C243.241 52.704 241.897 52.864 240.553 53.184C239.273 53.504 238.185 54.112 237.289 55.008C236.393 55.84 235.945 57.088 235.945 58.752C236.009 61.056 237.033 62.688 239.017 63.648C241.065 64.608 243.593 65.472 246.601 66.24C249.225 66.944 251.785 67.84 254.281 68.928C256.777 69.952 258.825 71.488 260.425 73.536C262.089 75.52 262.921 78.336 262.921 81.984C262.921 85.12 262.025 87.808 260.233 90.048C258.505 92.288 256.233 94.016 253.417 95.232C250.665 96.384 247.753 96.96 244.681 96.96C241.033 96.96 237.417 96.32 233.833 95.04C230.313 93.696 227.305 91.424 224.809 88.224L231.529 82.464C233.257 84.448 235.209 86.016 237.385 87.168C239.625 88.256 242.345 88.8 245.545 88.8C246.761 88.8 247.977 88.608 249.193 88.224C250.409 87.776 251.433 87.104 252.265 86.208C253.161 85.248 253.609 83.968 253.609 82.368C253.609 80.832 253.129 79.648 252.169 78.816C251.273 77.92 250.057 77.216 248.521 76.704C246.985 76.128 245.289 75.616 243.433 75.168C240.681 74.4 237.961 73.472 235.273 72.384C232.649 71.232 230.441 69.632 228.649 67.584C226.921 65.472 226.057 62.624 226.057 59.04C226.057 56.032 226.889 53.472 228.553 51.36C230.281 49.184 232.521 47.52 235.273 46.368C238.025 45.152 240.969 44.544 244.105 44.544C247.113 44.544 250.377 45.184 253.897 46.464C257.417 47.744 260.329 49.792 262.633 52.608L256.969 58.848Z" fill="#EE6C4D"/>
<path d="M329.592 34.704V76.176C329.592 81.232 328.408 85.776 326.04 89.808C323.736 93.776 320.536 96.912 316.44 99.216C312.408 101.456 307.768 102.576 302.52 102.576C297.336 102.576 292.696 101.456 288.6 99.216C284.504 96.912 281.272 93.776 278.904 89.808C276.6 85.776 275.448 81.232 275.448 76.176V34.704H285.816V75.312C285.816 78.64 286.584 81.616 288.12 84.24C289.72 86.864 291.8 88.912 294.36 90.384C296.92 91.856 299.64 92.592 302.52 92.592C305.592 92.592 308.44 91.856 311.064 90.384C313.688 88.912 315.768 86.864 317.304 84.24C318.904 81.616 319.704 78.64 319.704 75.312V34.704H329.592ZM371.279 50.736C375.759 50.736 379.759 51.856 383.279 54.096C386.863 56.272 389.679 59.312 391.727 63.216C393.775 67.12 394.799 71.632 394.799 76.752C394.799 81.808 393.775 86.32 391.727 90.288C389.679 94.192 386.895 97.264 383.375 99.504C379.855 101.744 375.919 102.864 371.567 102.864C367.983 102.864 364.719 102.096 361.775 100.56C358.895 99.024 356.623 97.264 354.959 95.28V123.12H344.975V51.504H354.959V58.896C356.431 56.784 358.639 54.896 361.583 53.232C364.527 51.568 367.759 50.736 371.279 50.736ZM369.935 59.856C366.927 59.856 364.239 60.592 361.871 62.064C359.567 63.536 357.743 65.552 356.399 68.112C355.119 70.608 354.479 73.488 354.479 76.752C354.479 79.952 355.119 82.832 356.399 85.392C357.743 87.952 359.567 90 361.871 91.536C364.239 93.008 366.927 93.744 369.935 93.744C372.943 93.744 375.599 93.008 377.903 91.536C380.207 90 381.999 87.952 383.279 85.392C384.623 82.832 385.295 79.952 385.295 76.752C385.295 73.488 384.623 70.608 383.279 68.112C381.999 65.552 380.207 63.536 377.903 62.064C375.599 60.592 372.943 59.856 369.935 59.856Z" fill="#D9D9D9"/>
</svg>
