<svg width="71" height="69" viewBox="0 0 71 69" fill="none" xmlns="http://www.w3.org/2000/svg">
<path fill-rule="evenodd" clip-rule="evenodd" d="M35 -3.50849e-05C26.6907 0.00108317 18.6528 2.95842 12.3242 8.34295C5.99565 13.7275 1.78917 21.1879 0.457269 29.3898C-0.874631 37.5917 0.754941 45.9998 5.05448 53.1103C9.35402 60.2207 16.043 65.5696 23.925 68.2C25.675 68.525 26.425 67.45 26.425 66.525V60.575C16.7 62.675 14.65 55.875 14.65 55.875C13.9661 53.732 12.5268 51.9107 10.6 50.75C7.425 48.6 10.85 48.625 10.85 48.625C11.959 48.7816 13.0176 49.1897 13.9448 49.8179C14.872 50.4462 15.6434 51.278 16.2 52.25C17.1684 53.9868 18.7868 55.268 20.6996 55.8118C22.6123 56.3556 24.6627 56.1176 26.4 55.15C26.5412 53.3761 27.3232 51.7144 28.6 50.475C20.85 49.575 12.675 46.575 12.675 33.175C12.6183 29.6947 13.9081 26.327 16.275 23.775C15.2037 20.7605 15.3289 17.4499 16.625 14.525C16.625 14.525 19.55 13.575 26.25 18.1C31.9787 16.5373 38.0213 16.5373 43.75 18.1C50.425 13.575 53.35 14.525 53.35 14.525C54.6461 17.4499 54.7713 20.7605 53.7 23.775C56.0669 26.327 57.3567 29.6947 57.3 33.175C57.3 46.625 49.125 49.575 41.325 50.45C42.1606 51.2969 42.8049 52.313 43.2146 53.43C43.6242 54.5469 43.7898 55.7387 43.7 56.925V66.525C43.7 67.675 44.325 68.55 46.2 68.2C54.0923 65.5663 60.7883 60.2071 65.0871 53.0836C69.386 45.9601 71.0066 37.5381 69.6583 29.3279C68.31 21.1178 64.081 13.6564 57.7297 8.28189C51.3783 2.90737 43.3201 -0.0287788 35 -3.50849e-05V-3.50849e-05Z" fill="black"/>
</svg>
