<svg width="79" height="77" viewBox="0 0 79 77" fill="none" xmlns="http://www.w3.org/2000/svg">
<g filter="url(#filter0_d)">
<path fill-rule="evenodd" clip-rule="evenodd" d="M38.9954 0.000209056C30.6861 0.00132731 22.6482 2.95866 16.3196 8.34319C9.99101 13.7277 5.78453 21.1882 4.45263 29.39C3.12073 37.5919 4.7503 46.0001 9.04984 53.1105C13.3494 60.221 20.0384 65.5698 27.9204 68.2002C29.6704 68.5252 30.4204 67.4502 30.4204 66.5252V60.5752C20.6954 62.6752 18.6454 55.8752 18.6454 55.8752C17.9615 53.7323 16.5222 51.9109 14.5954 50.7502C11.4204 48.6002 14.8454 48.6252 14.8454 48.6252C15.9544 48.7819 17.0129 49.1899 17.9401 49.8182C18.8674 50.4464 19.6387 51.2783 20.1954 52.2502C21.1637 53.987 22.7822 55.2682 24.6949 55.812C26.6077 56.3559 28.6581 56.1178 30.3954 55.1502C30.5365 53.3764 31.3185 51.7146 32.5954 50.4752C24.8454 49.5752 16.6704 46.5752 16.6704 33.1752C16.6137 29.6949 17.9034 26.3273 20.2704 23.7752C19.199 20.7607 19.3243 17.4501 20.6204 14.5252C20.6204 14.5252 23.5454 13.5752 30.2454 18.1002C35.9741 16.5376 42.0167 16.5376 47.7454 18.1002C54.4204 13.5752 57.3454 14.5252 57.3454 14.5252C58.6414 17.4501 58.7667 20.7607 57.6954 23.7752C60.0623 26.3273 61.352 29.6949 61.2954 33.1752C61.2954 46.6252 53.1204 49.5752 45.3204 50.4502C46.1559 51.2971 46.8002 52.3133 47.2099 53.4302C47.6196 54.5471 47.7851 55.7389 47.6954 56.9252V66.5252C47.6954 67.6752 48.3204 68.5502 50.1954 68.2002C58.0877 65.5665 64.7836 60.2074 69.0825 53.0839C73.3814 45.9603 75.002 37.5384 73.6537 29.3282C72.3054 21.118 68.0764 13.6567 61.725 8.28213C55.3737 2.90761 47.3155 -0.0285346 38.9954 0.000209056Z" fill="black"/>
</g>
<defs>
<filter id="filter0_d" x="0" y="0" width="78.1164" height="76.2782" filterUnits="userSpaceOnUse" color-interpolation-filters="sRGB">
<feFlood flood-opacity="0" result="BackgroundImageFix"/>
<feColorMatrix in="SourceAlpha" type="matrix" values="0 0 0 0 0 0 0 0 0 0 0 0 0 0 0 0 0 0 127 0"/>
<feOffset dy="4"/>
<feGaussianBlur stdDeviation="2"/>
<feColorMatrix type="matrix" values="0 0 0 0 0 0 0 0 0 0 0 0 0 0 0 0 0 0 0.25 0"/>
<feBlend mode="normal" in2="BackgroundImageFix" result="effect1_dropShadow"/>
<feBlend mode="normal" in="SourceGraphic" in2="effect1_dropShadow" result="shape"/>
</filter>
</defs>
</svg>
