<svg width="150" height="150" viewBox="0 0 150 150" fill="none" xmlns="http://www.w3.org/2000/svg">
<path d="M149.921 76.4032C149.921 70.2578 149.411 65.7733 148.306 61.1227H76.494V88.8601H118.646C117.797 95.7532 113.207 106.134 103.009 113.11L102.866 114.038L125.572 131.227L127.145 131.38C141.592 118.342 149.921 99.158 149.921 76.4032" fill="#4285F4"/>
<path d="M76.494 149.485C97.145 149.485 114.482 142.841 127.145 131.381L103.009 113.11C96.5504 117.511 87.8817 120.584 76.494 120.584C56.2678 120.584 39.101 107.546 32.9815 89.5248L32.0846 89.5992L8.47489 107.454L8.16614 108.293C20.7437 132.709 46.5792 149.485 76.494 149.485Z" fill="#34A853"/>
<path d="M32.9813 89.5248C31.3666 84.8743 30.4322 79.8911 30.4322 74.7424C30.4322 69.5932 31.3666 64.6105 32.8964 59.96L32.8536 58.9695L8.94805 40.8275L8.16591 41.1911C2.98207 51.3229 0.00756836 62.7006 0.00756836 74.7424C0.00756836 86.7842 2.98207 98.1613 8.16591 108.293L32.9813 89.5248" fill="#FBBC05"/>
<path d="M76.4941 28.9002C90.8563 28.9002 100.544 34.9626 106.069 40.0288L127.655 19.433C114.397 7.39122 97.1451 0 76.4941 0C46.5792 0 20.7438 16.7754 8.16614 41.191L32.8966 59.9599C39.101 41.9387 56.2678 28.9002 76.4941 28.9002" fill="#EB4335"/>
</svg>
