<svg width="484" height="450" viewBox="0 0 484 450" fill="none" xmlns="http://www.w3.org/2000/svg">
<path fill-rule="evenodd" clip-rule="evenodd" d="M218.167 204.279C231.576 173.745 217.639 129.102 244.754 111.068C270.824 93.7281 298.363 124.388 325.681 132.77C349.296 140.016 380.18 135.624 393.724 156.777C407.17 177.776 387.683 208.961 391.108 234.95C395.159 265.697 430.235 291.766 415.332 320.764C400.736 349.163 359.647 337.45 331.858 350.232C305.679 362.274 285.459 393.628 258.131 393.071C229.979 392.496 207.607 370.728 192.153 347.382C177.571 325.355 170.492 296.764 175.638 268.456C180.268 242.987 207.607 228.327 218.167 204.279Z" fill="#EE6C4D"/>
<path fill-rule="evenodd" clip-rule="evenodd" d="M214.266 260.685C181.745 253.299 140.548 275.436 117.706 252.226C95.7445 229.91 120.636 197.065 123.695 168.654C126.339 144.094 116.179 114.601 134.385 97.2963C152.459 80.1178 186.769 93.3485 211.64 85.0658C241.064 75.2665 260.02 35.8891 291.316 45.0333C321.964 53.9882 318.243 96.5513 336.055 121.418C352.835 144.844 387.45 158.762 392.076 185.702C396.842 213.453 379.703 239.542 359.706 259.136C340.837 277.625 314.103 289.989 285.333 290.295C259.449 290.571 239.878 266.502 214.266 260.685Z" fill="#EE6C4D"/>
<path fill-rule="evenodd" clip-rule="evenodd" d="M167.384 371.486C125.407 360.36 82.6682 344.964 62.154 303.728C40.0704 259.337 38.1606 203.269 60.6242 156.885C82.5671 111.576 127.132 87.8004 172.281 76.3301C216.53 65.0888 263.235 67.3664 298.339 96.4931C334.417 126.427 352.292 175.012 352.316 225.708C352.341 278.333 338.291 334.969 298.468 366.361C260.343 396.414 211.571 383.197 167.384 371.486Z" fill="#EE6C4D"/>
<path fill-rule="evenodd" clip-rule="evenodd" d="M233.775 254.028C243.729 288.329 280.822 315.748 273.803 349.017C267.054 381.004 229.505 374.35 205.943 385.943C185.573 395.964 167.548 420.522 145.309 412.234C123.231 404.007 116.957 365.049 98.514 345.909C76.6942 323.265 36.9327 325.511 28.9367 291.464C21.1063 258.123 55.9914 239.947 66.7262 210.558C76.8389 182.873 70.9521 143.278 89.6624 125.217C108.937 106.612 137.49 109.425 162.375 118.229C185.855 126.536 208.37 145.347 222.494 172.21C235.201 196.379 225.935 227.013 233.775 254.028Z" fill="#EE6C4D"/>
<path d="M220.096 96.5251C206.789 89.2851 196 95.2162 196 109.762V217.104C196 231.664 206.789 237.588 220.096 230.355L319.016 176.548C332.328 169.306 332.328 157.572 319.016 150.331L220.096 96.5251Z" fill="#595965"/>
<path d="M209.11 261.144C215.579 261.144 221.902 259.226 227.28 255.632C232.659 252.038 236.851 246.93 239.326 240.954C241.801 234.978 242.449 228.402 241.187 222.058C239.925 215.713 236.81 209.886 232.236 205.312C227.662 200.738 221.835 197.623 215.491 196.361C209.146 195.099 202.57 195.747 196.594 198.222C190.618 200.698 185.51 204.89 181.917 210.268C178.323 215.646 176.405 221.97 176.405 228.438C176.405 237.112 179.85 245.431 185.984 251.564C192.117 257.698 200.436 261.144 209.11 261.144ZM209.11 119.438C198.017 119.436 186.988 121.127 176.405 124.453V184.831C186.228 177.463 198.251 173.629 210.526 173.948C222.801 174.267 234.609 178.721 244.037 186.589C253.464 194.457 259.959 205.277 262.468 217.297C264.978 229.317 263.356 241.833 257.864 252.815C252.373 263.798 243.334 272.605 232.212 277.81C221.09 283.014 208.537 284.31 196.587 281.489C184.636 278.668 173.988 271.894 166.367 262.266C158.747 252.637 154.601 240.717 154.601 228.438V133.983C131.685 147.181 114.349 168.259 105.822 193.291C97.295 218.324 98.1591 245.602 108.253 270.044C118.347 294.487 136.983 314.426 160.688 326.147C184.393 337.868 211.551 340.571 237.101 333.753C262.652 326.936 284.853 311.062 299.567 289.089C314.282 267.116 320.507 240.544 317.082 214.322C313.657 188.1 300.816 164.017 280.952 146.561C261.088 129.105 235.555 119.465 209.11 119.438Z" fill="#181A19"/>
</svg>
