<svg width="493" height="468" viewBox="0 0 493 468" fill="none" xmlns="http://www.w3.org/2000/svg">
<path fill-rule="evenodd" clip-rule="evenodd" d="M284.091 233.603C304.722 212.767 308.865 174.12 335.942 166.495C361.977 159.164 373.072 190.088 391.458 203.369C407.352 214.85 432.784 218.916 436.206 238.92C439.604 258.78 414.039 278.648 407.989 300.002C400.833 325.267 419.313 354.404 398.036 373.664C377.2 392.526 349.245 373.256 323.404 376.569C299.06 379.691 272.869 399.514 251.854 392.408C230.205 385.088 220.14 362.444 215.971 340.242C212.036 319.294 216.122 294.994 229.597 273.899C241.721 254.92 267.842 250.014 284.091 233.603Z" fill="#EE6C4D"/>
<path fill-rule="evenodd" clip-rule="evenodd" d="M260.819 309.416C228.775 303.172 185.643 333.068 164.589 307.046C144.346 282.027 171.977 240.59 177.337 206.237C181.971 176.54 174.151 141.952 193.819 119.711C213.344 97.6316 246.712 110.749 272.341 98.8005C302.663 84.6644 324.863 35.8644 355.536 44.3189C385.574 52.5983 378.408 103.994 394.28 132.411C409.232 159.18 442.852 173.098 445.324 205.066C447.869 237.997 428.564 270.697 406.914 295.832C386.486 319.549 358.659 336.547 329.759 339.234C303.757 341.651 286.055 314.334 260.819 309.416Z" fill="#EE6C4D"/>
<path fill-rule="evenodd" clip-rule="evenodd" d="M306.307 301.697C292.513 335.448 311.004 385.326 280.733 404.956C251.628 423.83 218.219 389.289 186.278 379.533C158.665 371.099 123.308 375.494 106.546 351.751C89.9062 328.18 110.671 293.802 105.31 264.839C98.9687 230.574 57.1224 201.021 72.7233 169.002C88.0012 137.645 135.997 151.325 167.331 137.548C196.85 124.569 218.45 90.014 249.978 91.0676C282.457 92.1529 309.427 116.721 328.509 142.934C346.514 167.667 356.228 199.581 351.836 230.987C347.885 259.243 317.171 275.116 306.307 301.697Z" fill="#EE6C4D"/>
<path fill-rule="evenodd" clip-rule="evenodd" d="M204.265 405.351C169.156 386.751 134.354 363.962 125.495 320.976C115.96 274.702 127.244 221.247 158.166 181.645C188.371 142.961 233.895 129.012 277.091 126.827C319.424 124.685 360.829 135.816 385.594 170.139C411.046 205.414 415.83 254.851 404.099 302.856C391.921 352.689 366.176 403.615 323.144 425.686C281.947 446.816 241.222 424.93 204.265 405.351Z" fill="#EE6C4D"/>
<path fill-rule="evenodd" clip-rule="evenodd" d="M282.693 281.673C292.225 312.827 330.066 337.056 322.016 367.658C314.276 397.08 275.483 391.861 250.774 403.012C229.414 412.652 210.15 435.538 187.273 428.47C164.563 421.453 158.956 385.953 140.269 368.868C118.16 348.654 76.8648 351.629 69.3582 320.662C62.007 290.337 98.6121 272.901 110.427 245.763C121.556 220.199 116.366 184.108 136.191 167.15C156.613 149.682 186.166 151.595 211.774 159.075C235.937 166.132 258.855 182.823 272.884 207.075C285.506 228.894 275.186 257.137 282.693 281.673Z" fill="#EE6C4D"/>
<path d="M273.089 110.528C259.782 103.288 248.993 109.219 248.993 123.765V231.106C248.993 245.667 259.782 251.59 273.089 244.357L372.009 190.551C385.321 183.308 385.321 171.574 372.009 164.333L273.089 110.528Z" fill="#595965"/>
<path d="M262.104 275.147C268.572 275.147 274.896 273.228 280.274 269.635C285.652 266.041 289.844 260.933 292.32 254.957C294.795 248.981 295.443 242.405 294.181 236.061C292.919 229.716 289.804 223.889 285.23 219.315C280.656 214.741 274.829 211.626 268.484 210.364C262.14 209.102 255.564 209.75 249.588 212.225C243.612 214.701 238.504 218.893 234.91 224.271C231.317 229.649 229.398 235.973 229.398 242.441C229.398 251.115 232.844 259.434 238.978 265.567C245.111 271.701 253.43 275.147 262.104 275.147ZM262.104 133.441C251.01 133.439 239.981 135.13 229.398 138.456V198.834C239.222 191.466 251.245 187.631 263.52 187.95C275.795 188.269 287.603 192.724 297.03 200.592C306.458 208.46 312.952 219.28 315.462 231.3C317.972 243.32 316.35 255.835 310.858 266.818C305.367 277.801 296.328 286.608 285.206 291.812C274.084 297.017 261.531 298.313 249.58 295.492C237.629 292.671 226.981 285.897 219.361 276.268C211.741 266.64 207.595 254.72 207.595 242.441V147.986C184.679 161.184 167.343 182.262 158.816 207.294C150.289 232.326 151.153 259.605 161.247 284.047C171.341 308.489 189.977 328.428 213.682 340.149C237.387 351.87 264.545 354.574 290.095 347.756C315.646 340.938 337.846 325.064 352.561 303.092C367.275 281.119 373.5 254.546 370.075 228.325C366.651 202.103 353.81 178.02 333.946 160.564C314.081 143.107 288.548 133.468 262.104 133.441Z" fill="#181A19"/>
<path d="M207.556 402.374C227.749 402.374 244.119 384.983 244.119 363.531C244.119 342.078 227.749 324.687 207.556 324.687C187.363 324.687 170.994 342.078 170.994 363.531C170.994 384.983 187.363 402.374 207.556 402.374Z" fill="#595965"/>
<path d="M227.868 247.002V363.533H244.118V281.53L288.806 294.478V264.266L227.868 247.002Z" fill="#595965"/>
</svg>
