<svg width="480" height="302" viewBox="0 0 480 302" fill="none" xmlns="http://www.w3.org/2000/svg">
<path d="M207.93 226.404C207.93 233.382 212.202 239.046 217.465 239.046C222.728 239.046 227 233.382 227 226.404V74.697C227 67.7185 222.728 62.0548 217.465 62.0548C212.202 62.0548 207.93 67.7185 207.93 74.697V226.404Z" fill="#D9D9D9"/>
<path d="M160.255 200.626V100.475C160.255 93.5644 155.984 87.9559 150.72 87.9559C145.457 87.9559 141.185 93.5644 141.185 100.475V200.626C141.185 207.536 145.457 213.145 150.72 213.145C155.984 213.145 160.255 207.536 160.255 200.626Z" fill="#D9D9D9"/>
<path d="M85.8827 189.402C91.146 189.402 95.4176 183.761 95.4176 176.811V126.448C95.4176 119.498 91.146 113.857 85.8827 113.857C80.6194 113.857 76.3477 119.498 76.3477 126.448V176.811C76.3477 183.761 80.6194 189.402 85.8827 189.402Z" fill="#D9D9D9"/>
<path d="M293.745 200.626V100.475C293.745 93.5644 289.473 87.9559 284.21 87.9559C278.946 87.9559 274.675 93.5644 274.675 100.475V200.626C274.675 207.536 278.946 213.145 284.21 213.145C289.473 213.145 293.745 207.536 293.745 200.626Z" fill="#D9D9D9"/>
<path d="M350.954 113.857C345.691 113.857 341.419 119.498 341.419 126.448V176.811C341.419 183.761 345.691 189.402 350.954 189.402C356.218 189.402 360.489 183.761 360.489 176.811V126.448C360.489 119.498 356.218 113.857 350.954 113.857Z" fill="#D9D9D9"/>
<path d="M357.11 174.705C363.579 174.705 369.902 172.787 375.28 169.194C380.659 165.6 384.851 160.492 387.326 154.516C389.801 148.54 390.449 141.964 389.187 135.619C387.925 129.275 384.81 123.448 380.236 118.874C375.662 114.3 369.835 111.185 363.491 109.923C357.146 108.661 350.57 109.309 344.594 111.784C338.618 114.259 333.51 118.451 329.917 123.83C326.323 129.208 324.405 135.531 324.405 142C324.405 150.674 327.85 158.993 333.984 165.126C340.117 171.26 348.436 174.705 357.11 174.705V174.705ZM357.11 33C346.017 32.9976 334.988 34.6887 324.405 38.0148V98.3927C334.228 91.0252 346.251 87.1903 358.526 87.5093C370.801 87.8283 382.609 92.2827 392.037 100.151C401.464 108.018 407.959 118.839 410.468 130.859C412.978 142.879 411.356 155.394 405.864 166.377C400.373 177.36 391.334 186.167 380.212 191.371C369.09 196.576 356.537 197.872 344.587 195.051C332.636 192.23 321.988 185.456 314.367 175.827C306.747 166.199 302.601 154.279 302.601 142V47.5448C279.685 60.7426 262.349 81.8211 253.822 106.853C245.295 131.885 246.159 159.164 256.253 183.606C266.347 208.048 284.983 227.987 308.688 239.708C332.393 251.429 359.551 254.133 385.101 247.315C410.652 240.497 432.853 224.623 447.567 202.651C462.282 180.678 468.507 154.105 465.082 127.883C461.657 101.662 448.816 77.579 428.952 60.1227C409.088 42.6663 383.555 33.0267 357.11 33V33Z" fill="#EE6C4D"/>
<path d="M371.096 3.08689C357.789 -4.15314 347 1.77798 347 16.3238V123.666C347 138.226 357.789 144.149 371.096 136.916L470.016 83.1099C483.328 75.8673 483.328 64.1333 470.016 56.8924L371.096 3.08689Z" fill="#595965"/>
<path d="M316.966 127V225.25H333.241V156.111L378 167.028V141.556L316.966 127Z" fill="#44454E"/>
<path d="M296.621 258C316.846 258 333.241 243.337 333.241 225.25C333.241 207.163 316.846 192.5 296.621 192.5C276.396 192.5 260 207.163 260 225.25C260 243.337 276.396 258 296.621 258Z" fill="#44454E"/>
</svg>
