<svg width="643" height="484" viewBox="0 0 643 484" fill="none" xmlns="http://www.w3.org/2000/svg">
<g clip-path="url(#clip0)">
<path fill-rule="evenodd" clip-rule="evenodd" d="M444.737 219.827C447.493 209.876 453.963 202.087 460.679 194.951C473.755 181.058 480.787 172.468 485.447 152.146C488.188 140.193 490.977 127.528 499.67 118.856C505.999 112.541 516.892 107.236 525.356 111.758C538.378 120.172 541.875 137.439 540.562 152.9C538.934 172.064 530.665 183.88 514.78 190.938C505.829 194.913 499.88 200.159 495.021 209.299C491.134 216.607 488.868 225.759 483.984 232.384C476.683 242.289 467.546 246.691 456.283 245.046C466.832 224.035 479.157 202.826 494.023 185.135C495.415 183.357 503.623 176.549 501.967 173.518C500.143 170.181 491.718 182.718 491.777 182.642C487.457 188.01 483.459 193.715 479.534 199.475C479.544 199.48 479.555 199.483 479.566 199.489C475.525 205.4 471.515 211.397 467.582 217.469C465.991 220.038 464.443 222.639 462.961 225.306C460.786 229.219 457.334 240.325 453.775 242.731C453.014 243.245 452.31 243.533 451.651 243.651C449.223 247.956 446.86 252.295 444.613 256.685C438.744 268.151 433.707 280.257 431.395 293.202C430.721 296.981 431.198 311.114 428.816 313.842C424.46 318.831 425.736 309.223 425.997 306.323C428.16 282.31 436.124 261.852 447.686 241.664C444.134 236.642 443.621 223.859 444.737 219.827Z" fill="#EE6C4D"/>
<path fill-rule="evenodd" clip-rule="evenodd" d="M593.922 231.43C589.33 225.573 578.291 224.579 571.54 224.971C563.186 225.456 554.605 227.658 546.657 230.32C533.565 234.704 520.843 242.706 509.312 250.451C507.922 251.384 490.803 262.529 492.318 264.485C493.819 266.423 510.625 253.184 514.371 250.902C522.363 246.032 529.694 240.272 538.504 237.055C547.626 233.724 557.274 232.405 566.866 232.496C568.097 232.508 572.113 231.579 572.2 233.551C572.285 235.479 565.64 234.473 564.468 234.485C559.629 234.533 554.759 235.026 549.989 235.934C541.05 237.635 532.647 241.061 524.991 246.317C527.127 251.694 532.248 254.173 537.62 252.828C542.262 251.664 546.788 248.795 551.334 247.966C554.465 247.395 557.601 247.735 560.637 248.69C568.645 251.209 573.264 256.371 582.07 252.78C588.972 249.966 600.517 239.853 593.922 231.43Z" fill="#EE6C4D"/>
<path fill-rule="evenodd" clip-rule="evenodd" d="M588.728 176H586.556C586.708 173.015 586.906 170.036 587.372 167.084C589.118 156.022 594.579 139.775 606.554 137.979C606.996 137.912 608.621 137.901 610.59 138.025C611.523 137.467 612.568 137.129 613.669 137.051C623.865 136.246 635.252 145.056 640.17 154.223C644.135 161.615 643.467 171.321 641.018 179.173C639.378 184.431 635.799 191.926 629.831 191.999C622.363 192.091 622.003 182.207 621.859 176.428C621.667 168.746 620.76 162.054 615.108 156.818C613.791 155.598 612.351 154.525 611.02 153.322C608.937 151.439 606.634 149.511 606.366 146.396C605.995 142.099 608.26 141.325 611.719 142.124C612.308 142.26 618.247 145.113 617.368 142.858C617.099 142.169 616.119 141.623 614.881 141.213C611.679 140.84 607.86 140.408 606.761 140.666C594.913 143.45 590.299 161.028 589.074 172.196C588.935 173.46 588.824 174.729 588.728 176H588.728Z" fill="#EE6C4D"/>
</g>
<path d="M320.5 228C384.289 228 436 176.96 436 114C436 51.0395 384.289 0 320.5 0C256.711 0 205 51.0395 205 114C205 176.96 256.711 228 320.5 228Z" fill="#C5CFD6"/>
<path fill-rule="evenodd" clip-rule="evenodd" d="M419.258 217.173C422.123 216.823 425.18 216.947 427.844 218.077C433.509 220.482 435.119 227.174 435.041 232.614C434.957 238.468 433.714 244.863 438.165 249.58C440.211 251.748 442.756 253.408 444.765 255.617C446.912 257.977 448.597 260.677 449.844 263.577C452.134 268.903 453.258 275.167 451.164 280.754C449.32 285.674 444.681 290.114 445.683 295.708C446.729 301.543 452.612 306.004 456.29 310.351C460.453 315.269 464.286 321.556 464.916 328.006C465.519 334.188 462.828 340.44 458.699 345.113C450.448 354.451 438.045 359.028 425.54 359C420.23 358.988 414.219 358.748 409.637 355.895C408.22 355.013 407.473 354.023 406.631 352.648C405.877 351.414 404.88 350.612 403.725 349.739C401.19 347.822 399.359 345.239 398.19 342.347C393.652 331.114 397.279 317.218 403.631 307.243C405.136 304.88 406.369 302.605 405.637 299.789C404.874 296.848 402.999 294.196 401.34 291.669C399.701 289.17 397.83 286.787 396.549 284.087C395.207 281.257 394.829 278.294 395.066 275.198C395.512 269.381 398.023 264.013 401.578 259.336C405.002 254.83 409.022 250.518 409.031 244.615C409.041 238.357 404.858 232.791 406.64 226.429C407.378 223.795 408.86 221.092 411.249 219.513C413.539 217.998 416.564 217.502 419.258 217.173Z" fill="#ED504C"/>
<path fill-rule="evenodd" clip-rule="evenodd" d="M417.386 227.176C417.44 226.336 418.437 225.832 419.222 226.051C420.254 226.34 420.235 227.305 420.207 228.165C420.124 230.808 420.506 233.377 421.142 235.942C422.462 241.274 424.903 246.186 426.836 251.308C428.768 256.425 429.675 261.709 428.542 267.124C427.473 272.23 425.795 277.203 424.701 282.315C423.738 286.821 422.712 291.573 424.18 296.067C425.592 300.393 428.714 303.916 430.962 307.825C435.617 315.918 437.681 324.896 437.957 334.135C438.085 338.425 437.97 342.755 436.975 346.963C436.402 349.386 435.632 352.66 433.556 354.333C432.599 355.105 430.961 355.371 430.155 354.229C429.399 353.158 430.062 351.499 430.303 350.357C431.343 345.413 431.552 340.361 431.303 335.342C431.062 330.48 430.487 325.626 428.957 320.982C427.537 316.673 425.379 312.802 422.84 309.032C420.252 305.191 417.562 301.341 416.493 296.789C415.406 292.166 416.289 287.462 417.469 282.927C418.717 278.131 420.352 273.472 422.042 268.805C423.689 264.258 424.272 259.955 423.363 255.196C421.567 245.794 416.76 236.968 417.386 227.176Z" fill="#C5CFD6"/>
<path fill-rule="evenodd" clip-rule="evenodd" d="M494.892 228.582C498.437 229.659 501.958 231.395 504.485 234.118C509.858 239.909 508.209 248.661 505.243 255.053C502.05 261.933 497.212 268.849 499.94 276.743C501.193 280.372 503.301 283.659 504.49 287.316C505.761 291.224 506.309 295.294 506.239 299.372C506.11 306.862 504.118 314.855 498.708 320.373C493.945 325.232 486.158 328.07 484.377 335.206C482.518 342.651 487.061 350.988 489.078 358.041C491.36 366.024 492.533 375.453 489.862 383.409C487.303 391.034 480.842 397.028 473.528 400.406C458.915 407.156 441.949 406.117 427.296 399.578C421.075 396.801 414.151 393.391 410.285 387.633C409.09 385.853 408.736 384.294 408.476 382.23C408.243 380.378 407.497 378.911 406.605 377.278C404.644 373.692 403.862 369.684 404.02 365.656C404.634 350.011 416.234 335.464 428.956 326.972C431.971 324.96 434.618 322.912 435.249 319.2C435.909 315.325 435.111 311.213 434.501 307.361C433.899 303.554 432.964 299.763 432.889 295.902C432.811 291.858 433.933 288.157 435.848 284.619C439.445 277.972 445.227 272.93 451.87 269.247C458.267 265.7 465.262 262.692 468.393 255.715C471.712 248.32 469.747 239.561 475.2 232.964C477.458 230.233 480.625 227.807 484.262 227.182C487.749 226.583 491.558 227.57 494.892 228.582Z" fill="#FF9B21"/>
<path fill-rule="evenodd" clip-rule="evenodd" d="M487.651 240.811C488.154 239.844 489.584 239.769 490.387 240.44C491.443 241.324 490.914 242.456 490.432 243.46C488.95 246.547 488.052 249.789 487.452 253.159C486.204 260.166 486.485 267.262 486.063 274.341C485.642 281.414 483.935 288.147 479.774 293.965C475.85 299.452 471.283 304.462 467.327 309.943C463.841 314.773 460.153 319.863 459.516 325.954C458.901 331.817 460.707 337.626 461.288 343.434C462.492 355.457 460.204 367.171 455.688 378.257C453.591 383.405 451.189 388.472 447.821 392.933C445.882 395.503 443.267 398.977 439.963 399.869C438.44 400.281 436.385 399.739 436.042 397.964C435.718 396.298 437.363 394.682 438.242 393.455C442.047 388.146 444.938 382.273 447.275 376.198C449.54 370.314 451.41 364.265 452.053 357.963C452.649 352.116 452.153 346.401 451.158 340.606C450.144 334.701 449.015 328.731 450.149 322.781C451.3 316.736 454.795 311.628 458.55 306.876C462.521 301.85 466.873 297.19 471.293 292.549C475.6 288.027 478.536 283.238 479.966 277.126C482.79 265.049 481.791 252.078 487.651 240.811Z" fill="#AFB9C5"/>
<path fill-rule="evenodd" clip-rule="evenodd" d="M385.306 273C391.2 273 396.382 276.124 399.953 280.558C404.133 285.748 404.977 292.086 406.675 298.272C407.519 301.35 408.972 304.406 411.517 306.498C413.833 308.4 416.772 308.78 419.543 309.71C425.082 311.567 429.555 316.041 431.321 321.499C433.476 328.158 431.193 334.873 431.586 341.622C431.947 347.819 438.058 351.685 442.974 354.656C447.821 357.586 452.189 360.328 453.649 366.035C455.197 372.088 455.716 378.844 453.572 384.823C450.002 394.779 439.552 399.163 429.456 399.842C420.293 400.459 408.772 399.491 401.891 392.84C397.773 388.86 396.282 383.293 396.467 377.755C396.582 374.311 397.264 370.899 398.146 367.571C398.771 365.213 399.616 362.864 399.856 360.427C400.496 353.942 394.503 352.697 389.401 350.916C382.918 348.654 378.38 344.38 375.224 338.425C372.285 332.881 371.052 326.658 372.814 320.554C373.714 317.437 375.346 314.61 377.559 312.205C378.533 311.146 379.907 310.263 380.786 309.151C381.607 308.112 381.428 306.766 381.145 305.55C379.837 299.931 375.762 295.278 374.305 289.668C372.989 284.605 373.767 278.304 378.395 275.038C380.395 273.627 382.862 273.016 385.306 273Z" fill="#EE6C4D"/>
<path fill-rule="evenodd" clip-rule="evenodd" d="M393.338 287.641C399.585 294.296 401.283 303.325 401.781 312.076C402.061 316.983 401.77 322.159 403.212 326.919C404.445 330.993 407.337 334.107 410.318 337.051C416.319 342.975 423.011 348.999 424.766 357.574C425.796 362.606 425.101 367.804 426.524 372.78C427.817 377.304 430.096 381.748 432.867 385.568C435.098 388.645 438.004 391 440.443 393.867C441.187 394.743 442.253 396.031 441.946 397.267C441.586 398.714 439.743 399.172 438.435 398.945C435.386 398.415 432.819 395.503 430.825 393.386C427.91 390.291 425.432 386.962 423.419 383.227C421.183 379.08 419.383 374.679 418.614 370.026C417.816 365.199 418.213 360.168 416.391 355.535C413.324 347.74 405.886 343.14 400.508 337.064C393.808 329.494 394.807 320.072 395.493 310.759C395.87 305.641 396.245 299.862 393.659 295.189C392.672 293.406 390.471 291.743 390.047 289.715C389.658 287.858 391.78 285.981 393.338 287.641Z" fill="#AFB9C5"/>
<path fill-rule="evenodd" clip-rule="evenodd" d="M400 397C400 435.058 406.211 455 439 455C471.789 455 478 435.058 478 397H400Z" fill="#EE6C4D" fill-opacity="0.5"/>
<g clip-path="url(#clip1)">
<path fill-rule="evenodd" clip-rule="evenodd" d="M10.2007 48.1421C5.28502 45.7045 -1.26816 48.5315 1.46553 54.9754C4.39379 61.8758 15.2204 61.961 21.3348 61.8242C20.7228 61.7921 18.7521 55.4644 18.0774 54.5082C16.0878 51.6875 13.2228 49.6433 10.2007 48.1421ZM66.8387 171.859C68.0789 172.919 66.9396 171.958 66.8387 171.859V171.859ZM5.46528 79.3526C2.58864 81.5516 2.45143 85.4341 4.80128 88.0621C7.5994 91.1906 12.7087 91.0767 16.5226 90.7719C18.2479 90.6338 27.4597 89.8962 25.2762 88.3887C25.4442 88.4521 25.795 88.6061 26.1704 88.8154C26.3724 89.5535 26.5845 90.2891 26.8056 91.0214C26.7514 91.0531 26.7052 91.087 26.6473 91.1185C26.71 91.0911 26.7541 91.0614 26.8093 91.0335C29.0246 98.3526 32.1778 105.322 36.3068 111.842C34.762 111.233 33.1619 110.773 31.5391 110.568C26.7333 109.96 16.6235 113.695 21.9992 120.093C27.1536 126.227 35.1782 119.646 41.028 118.739C46.7022 126.658 52.9582 134.247 59.5145 141.583C59.1127 141.709 58.7602 141.971 58.5581 142.379C55.9279 141.045 53.1871 139.136 50.7529 138.619C47.2403 137.874 40.0376 137.423 37.3827 140.567C34.1174 144.433 37.6176 147.573 41.4754 148.315C47.0694 149.39 54.3922 146.657 59.7748 144.81C60.3905 144.919 61.0627 144.739 61.4642 144.247C61.5832 144.208 61.7021 144.169 61.8178 144.132C68.4572 151.432 75.3506 158.491 82.202 165.395C82.1291 165.391 82.0562 165.387 81.9801 165.383C80.1929 164.211 78.2759 163.249 76.1979 162.745C71.3911 161.574 65.7354 161.568 61.8346 165.046C57.9489 168.509 56.5724 174.566 60.5923 178.455C68.6386 186.239 80.4938 168.49 84.5525 167.749C91.5151 174.692 98.8773 181.179 106.355 187.534C105.506 187.276 104.635 187.086 103.735 187C96.4021 186.298 79.1906 195.288 88.1897 204.133C96.0319 211.84 105.109 197.005 111.428 191.817C118.475 197.741 125.56 203.624 132.446 209.737C128.69 208.74 125.061 208.593 121.035 209.809C116.869 211.07 110.146 214.216 112.78 219.84C115.459 225.56 123.531 222.957 127.735 221.141C130.029 220.151 134.626 216.808 138.663 215.4C149.651 225.774 159.169 237.2 166.375 250.661C170.873 259.065 174.287 268.044 176.69 277.273C178.223 283.163 181.245 293.056 180.64 300.723C183.524 285.377 178.31 266.946 172.693 253.229C167.529 240.616 159.8 229.543 150.747 219.576C153.019 212.743 172.14 202.888 160.709 196.54C154.639 193.184 148.422 198.753 147.095 204.652C146.183 208.705 147.572 213.798 149.046 217.733C146.198 214.694 143.237 211.754 140.187 208.911C135.971 204.982 131.654 201.166 127.295 197.399C134.477 190.652 141.274 171.364 131.645 168.21C117.425 163.565 124.272 189.874 125.264 194.806C125.546 194.822 125.765 194.737 125.927 194.555C125.847 195.006 125.754 195.489 125.641 195.976C117.3 188.803 108.835 181.772 100.648 174.428C101.386 173.883 102.558 171.8 103.48 170.691C105.56 168.192 107.549 165.581 109.004 162.657C111.301 158.037 113.516 150.666 107.427 147.949C100.805 144.987 97.6576 153.323 97.6114 158.296C97.58 161.735 98.5166 165.002 99.0045 168.373C99.1569 169.424 98.5697 174.163 100.002 172.125C99.9344 172.876 99.9247 173.421 99.9582 173.807C98.4885 172.482 97.0301 171.142 95.581 169.793C95.648 169.623 95.6978 169.437 95.7091 169.222C95.7868 167.739 94.295 167.168 93.2489 167.602C91.3367 165.785 89.4432 163.945 87.5835 162.069C83.6419 158.093 79.6431 154.004 75.6721 149.828C76.5336 149.087 76.191 148.062 76.9967 147.277C77.8011 146.493 79.3855 146.059 80.3315 145.331C82.7107 143.498 84.6836 140.828 86.1104 138.2C88.4661 133.858 91.5104 124.75 84.6288 122.681C77.5356 120.544 73.9352 129.312 73.4791 134.794C73.3904 135.856 74.1855 145.424 74.7942 148.899C67.4463 141.137 60.2193 133.085 53.6717 124.892C55.6569 124.874 61.2854 120.806 62.4232 119.696C65.1996 116.989 69.613 111.008 64.7456 107.842C60.4178 105.034 55.0832 109.101 53.2324 113.053C52.9283 113.704 51.8556 119.761 51.772 122.479C49.062 119.004 46.4769 115.51 44.0718 112.004C42.4678 109.673 40.969 107.28 39.5666 104.837C39.9042 104.646 40.2218 104.312 40.5217 103.897C47.7398 102.672 56.9424 91.4099 48.4641 87.4915C44.4274 85.6283 40.0498 89.4743 38.0723 92.6232C37.6672 93.2674 37.0111 96.5062 36.4771 99.0609C32.4425 90.9665 29.3594 82.3972 27.0128 73.6109C27.6412 73.4549 28.1733 72.9749 28.2435 72.1493C31.7479 70.1515 34.5153 68.4879 36.9616 64.6461C38.4814 62.2598 41.2184 56.808 36.7528 55.4835C30.9415 53.7602 27.291 62.6364 26.8156 67.0084C26.7602 67.5159 26.7622 68.9919 26.7814 70.3444C26.5796 70.3169 26.3757 70.32 26.1757 70.3554C24.841 64.9149 23.7756 59.4043 22.9283 53.8845C26.1002 52.8636 26.6487 36.2056 24.5368 33.8336C19.8162 28.5226 16.4859 36.1946 16.7379 40.2494C17.0356 45.0304 19.2021 49.3796 21.7818 53.2393C22.0586 53.6481 21.9796 53.6282 22.0513 53.0588C22.091 53.3403 22.1851 53.548 22.3248 53.6984C22.1917 56.2151 21.9322 58.7917 22.0568 61.0186C22.414 67.3961 23.1569 73.8106 24.2355 80.106C24.4979 81.637 24.7983 83.1557 25.1352 84.6611C22.5858 82.4892 19.1484 80.5594 17.8034 79.9559C14.3125 78.3913 8.93265 76.7019 5.46528 79.3526ZM181.05 300.745C180.888 302.968 180.486 305.005 179.737 306.684C180.299 304.772 180.73 302.785 181.05 300.745Z" fill="#EE6C4D"/>
<g opacity="0.7">
<path opacity="0.7" fill-rule="evenodd" clip-rule="evenodd" d="M105.822 198.77C119.474 198.062 136.359 206.031 137.815 220.871C138.873 231.653 138.546 242.405 140.183 253.172C141.492 261.776 144.261 270.036 148.038 277.874C151.67 285.411 159.203 291.827 161.162 299.879C162.411 305.01 161.712 312.227 159.99 317.245C157.896 323.347 159.009 322.865 163.182 327.985C171.359 338.018 178.723 348.307 183.93 360.29C191.43 377.55 196.348 397.725 193.564 416.618C193.21 419.017 192.79 427.627 189.486 428.229C185.796 428.902 187.522 423.978 187.719 422.387C188.974 412.238 190.09 403.367 188.575 393.059C182.732 353.288 154.201 327.085 135.623 293.331C134.602 291.59 132.446 287.445 130.947 284.711C128.58 280.393 126.201 272.179 122.997 268.977C116.963 262.947 122.511 275.071 123.686 277.385C125.173 280.313 126.808 283.425 128.332 285.99C135.302 297.882 143.082 310.862 150.28 323.121C119.147 330.214 97.2209 292.785 88.8661 268.178C81.9824 247.905 73.7464 200.505 105.822 198.77Z" fill="#EE6C4D"/>
<path opacity="0.7" fill-rule="evenodd" clip-rule="evenodd" d="M288.805 161.121C265.983 162.932 251.331 177.992 244.511 199.056C240.835 210.407 240.413 222.068 238.37 233.734C235.297 251.284 228.686 264.585 215.764 277.089C211.762 280.961 208.812 284.937 206.716 289.191C202.554 293.438 198.931 298.244 196.269 304.12C192.869 311.624 191.907 320.628 195.832 328.109C196.888 330.121 199.521 334.158 202.25 335.992C192.033 357.752 186.415 381.584 187.048 405.386C187.431 419.753 188.132 434.127 188.951 448.477C189.171 452.33 190.426 458.693 192.31 452.231C194.035 446.32 191.872 437.041 191.672 430.867C190.698 400.786 189.866 373.435 202.248 345.331C203.547 342.385 204.924 339.463 206.357 336.565C206.442 336.516 206.52 336.457 206.599 336.4C206.653 336.442 206.703 336.487 206.758 336.529C206.849 336.365 206.975 336.171 207.121 335.954C207.532 335.529 207.891 334.993 208.233 334.395C209.331 332.873 210.574 331.084 210.581 330.105C210.581 330.098 210.577 330.086 210.577 330.078C218.242 317.565 227.022 305.742 235.99 294.149C235.923 294.234 245.718 280.897 244.204 288.272C243.474 291.827 236.269 298.595 233.359 302.36C226.922 310.735 219.363 321.348 213.082 331.61C212.237 332.096 211.043 334.48 210.179 336.257C209.702 337.157 209.257 338.064 208.82 338.855C231.077 346.208 248.39 331.396 260.196 314.168C260.21 314.147 260.223 314.126 260.236 314.106C263.829 309.346 267.509 304.619 272.107 300.856C279.777 294.576 287.992 293.468 297.036 290.378C321.7 281.951 332.186 249.987 335.516 226.27C339.274 199.513 320.894 158.483 288.805 161.121Z" fill="#EE6C4D"/>
<path opacity="0.7" fill-rule="evenodd" clip-rule="evenodd" d="M243.723 86.1905C220.299 110.569 208.982 144.383 200.022 176.172C190.014 211.676 183.403 247.728 183.149 284.642C182.983 308.895 182.323 333.299 183.739 357.523C184.241 366.126 185.099 374.745 186.462 383.255C186.575 383.955 189.626 402.958 192.545 398.53C194.205 396.012 189.417 378.817 189.056 375.953C187.021 359.822 186.548 343.573 186.647 327.326C186.81 300.575 186.021 273.962 188.733 247.31C189.137 243.33 189.457 239.151 190.402 235.258C191.406 231.119 190.127 232.926 193.396 231.287C196.573 229.694 200.498 229.922 203.794 227.924C216.866 219.997 223.553 199.635 228.758 186.275C234.711 170.998 238.329 154.706 241.219 138.628C243.341 126.816 244.858 115.075 245.716 103.11C245.987 99.3392 246.003 95.3959 246.744 91.6881C246.944 90.6879 247.945 88.9186 247.909 88.0329C247.832 86.1583 246.701 85.0559 246.608 83.4807C245.627 84.3631 244.665 85.267 243.723 86.1905Z" fill="#EE6C4D"/>
<path opacity="0.7" fill-rule="evenodd" clip-rule="evenodd" d="M116 411C116 451.317 148.683 484 189 484C229.317 484 262 451.317 262 411" fill="#EE6C4D"/>
<path opacity="0.7" fill-rule="evenodd" clip-rule="evenodd" d="M194.857 411.232H191C191.268 406.393 191.621 401.562 192.43 396.776C195.525 378.473 205.2 351.591 226.42 348.62C227.203 348.51 230.083 348.491 233.571 348.696C235.224 347.772 237.076 347.213 239.028 347.085C257.095 345.753 277.271 360.329 285.986 375.497C293.012 387.726 291.828 403.785 287.489 416.778C284.583 425.476 278.241 437.878 267.665 437.999C254.433 438.15 253.795 421.796 253.539 412.236C253.199 399.525 251.593 388.453 241.577 379.789C239.243 377.771 236.692 375.995 234.334 374.005C230.642 370.89 226.562 367.7 226.086 362.546C225.43 355.436 229.443 354.156 235.571 355.477C236.616 355.702 247.139 360.424 245.581 356.692C245.105 355.552 243.368 354.648 241.175 353.971C235.501 353.354 228.733 352.638 226.787 353.066C205.792 357.672 197.617 386.755 195.446 405.233C195.212 407.227 195.023 409.228 194.857 411.232Z" fill="#EE6C4D"/>
</g>
</g>
<path fill-rule="evenodd" clip-rule="evenodd" d="M321.791 111.967C316.726 106.381 313.297 99.5364 313.87 91.8663C315.521 69.7666 348.27 74.6283 354.64 85.7823C361.011 96.9363 360.254 125.229 352.02 127.223C348.737 128.018 341.743 126.07 334.624 122.04L339.092 151.735H312.708L321.791 111.967Z" fill="#B28B67"/>
<path fill-rule="evenodd" clip-rule="evenodd" d="M366.328 70.3195C365.782 68.5155 364.313 66.9709 362.332 66.5127C361.852 66.4015 361.356 66.3566 360.862 66.3753C360.684 66.382 360.635 66.43 360.552 66.3136C360.49 66.2272 360.489 66.0163 360.464 65.9149C360.385 65.5994 360.287 65.2878 360.165 64.9843C359.751 63.9492 359.054 63.0332 358.215 62.2615C356.645 60.8178 354.523 59.8214 352.319 59.6411C351.112 59.5425 349.915 59.7266 348.774 60.0953C348.184 60.2861 347.611 60.5238 347.054 60.7865C346.886 60.8656 346.341 61.2529 346.172 61.2278C345.986 61.2001 345.612 60.7657 345.461 60.6566C343.591 59.3086 341.281 58.7786 338.951 58.7945C336.322 58.8131 333.789 58.9365 331.596 60.4423C331.132 60.7611 330.69 61.1102 330.269 61.4777C330.047 61.6712 329.833 61.8719 329.628 62.081C329.504 62.2071 329.384 62.3361 329.268 62.4686C329.072 62.6934 329.103 62.7672 328.828 62.6104C327.773 62.008 326.55 61.7263 325.318 61.8685C324.586 61.953 323.874 62.1593 323.199 62.4309C322.968 62.5233 322.436 62.892 322.191 62.8956C321.947 62.8992 321.422 62.5574 321.172 62.4705C319.818 62.0011 318.359 61.8854 316.937 62.1023C315.469 62.3261 314.028 62.8761 312.784 63.6361C312.186 64.0017 311.664 64.4068 311.245 64.9504C311.064 65.1851 310.901 65.4334 310.696 65.6511C310.576 65.7785 310.338 65.9092 310.273 66.0705C310.312 65.9739 308.668 65.3788 308.513 65.3407C307.687 65.138 306.846 65.1791 306.037 65.4292C304.515 65.8995 303.207 66.9542 302.132 68.0356C301.579 68.591 301.096 69.205 300.686 69.8591C300.489 70.1724 300.309 70.4947 300.145 70.8238C300.065 70.9832 300.012 71.1827 299.907 71.3263C299.772 71.5114 299.681 71.5149 299.436 71.5956C298.191 72.0054 297.056 72.6989 296.191 73.6361C295.317 74.5843 294.75 75.7519 294.512 76.9815C294.498 77.0539 294.49 77.3541 294.445 77.3933C294.383 77.4472 294.132 77.4234 294.038 77.4338C293.71 77.47 293.384 77.5237 293.063 77.5952C292.47 77.7269 291.894 77.9207 291.348 78.1742C289.222 79.1624 287.702 81.015 286.958 83.0996C286.177 85.2872 286.191 87.7936 287.124 89.9404C287.275 90.2871 287.454 90.6237 287.665 90.9421C287.794 91.1376 287.836 91.138 287.752 91.3431C287.658 91.5713 287.487 91.793 287.376 92.0159C287.013 92.7434 286.76 93.5149 286.599 94.303C286.337 95.5956 286.206 96.9541 286.466 98.2566C286.586 98.8614 286.796 99.4526 287.116 99.9913C287.279 100.266 287.47 100.526 287.685 100.767C287.797 100.893 287.916 101.012 288.04 101.126C288.111 101.192 288.205 101.249 288.265 101.322C288.413 101.5 288.444 101.354 288.367 101.615C288.261 101.981 288.02 102.342 287.872 102.697C287.72 103.064 287.582 103.436 287.457 103.811C287.202 104.571 286.986 105.345 286.852 106.132C286.593 107.643 286.638 109.253 287.399 110.64C287.725 111.233 288.191 111.753 288.757 112.158C289.034 112.356 289.334 112.527 289.649 112.667C289.811 112.739 290.018 112.77 290.091 112.917C290.171 113.075 290.053 113.389 290.026 113.565C289.792 115.102 289.675 116.716 290.161 118.222C290.609 119.609 291.595 120.834 292.876 121.645C295.36 123.218 298.708 123.129 301.318 121.87C301.999 121.542 302.635 121.134 303.203 120.653C304.649 122.482 307.624 122.424 309.737 121.903C312.37 121.254 314.482 119.534 315.699 117.275C317.364 119.178 320.857 118.56 322.011 116.496C322.293 115.99 322.461 115.434 322.543 114.87C322.587 114.574 322.559 114.275 322.591 113.981C322.633 113.606 322.899 113.242 323.053 112.88C323.351 112.174 323.536 111.446 323.544 110.685C323.548 110.288 323.494 109.901 323.454 109.507C323.418 109.152 323.523 108.821 323.582 108.471C322.907 108.576 322.085 108.405 321.448 108.221C320.824 108.04 320.239 107.565 319.799 107.131C318.776 106.123 318.151 104.802 317.723 103.486C316.785 100.6 317.17 97.1365 320.26 95.5523C321.7 94.8143 326.014 94.8167 327.729 95.1815C329.532 95.565 331.576 99.3025 331.677 99.6538C331.739 99.8712 331.708 100.14 331.92 100.285C332.387 100.604 333.158 100.051 333.503 99.7781C334.098 99.3072 334.522 98.6807 334.889 98.0457C335.69 96.6622 336.335 95.1785 336.791 93.664C337.143 92.4963 337.367 91.2922 337.827 90.1543C338.284 89.022 339.005 88.01 340.125 87.3685C341.344 86.6708 342.741 86.3033 344.079 85.8648C345.405 85.4302 346.709 84.899 347.737 83.9769C347.963 83.7741 348.183 83.5587 348.365 83.32C348.508 83.1315 348.65 82.7707 348.869 82.6512C349.209 82.4653 349.706 82.9487 350 83.1242C351.452 83.9903 352.663 85.1981 353.639 86.5176C354.611 87.8298 355.408 89.0925 356.055 90.5579C356.536 91.6446 356.836 93.0365 357.681 93.9271C358.058 94.3248 360.862 94.5654 361.77 94.2182C362.678 93.871 363.696 92.9695 364.001 92.4045C364.313 91.8262 364.387 91.1909 364.254 90.5579C364.176 90.1854 364.015 89.8375 363.928 89.4717C363.854 89.1644 363.787 88.874 363.628 88.5924C363.326 88.059 362.811 87.6756 362.189 87.5152C362.836 86.9549 363.372 86.2845 363.743 85.5351C364.128 84.7565 364.455 83.8097 364.548 82.9552C364.623 82.2612 364.507 81.5421 364.102 80.9457C363.678 80.32 362.926 79.9118 362.276 79.5215C363.269 78.7914 364.12 77.9035 364.819 76.9204C366.178 75.0086 367.019 72.5988 366.328 70.3195Z" fill="#191847"/>
<path fill-rule="evenodd" clip-rule="evenodd" d="M303.996 237.191L356.853 368.575L393.902 465.412H415.027L364.1 237.191L303.996 237.191Z" fill="#B3B3B3"/>
<path fill-rule="evenodd" clip-rule="evenodd" d="M290.933 237.191C290.358 282.272 290.773 342.965 289.435 345.775C288.542 347.649 260.783 368.994 206.157 409.81L217.045 427.203C281.899 387.916 315.984 365.655 319.3 360.421C324.273 352.569 349.26 280.319 362.26 237.191H290.933Z" fill="#D1D1D1"/>
<path fill-rule="evenodd" clip-rule="evenodd" d="M187 421.514L205.391 408.366L220.231 424.978C221.372 437.502 225.786 451.548 233.473 467.115L230.104 469.77L203.252 439.709L195.751 428.098L194.066 429.425L187 421.514Z" fill="#464343"/>
<path fill-rule="evenodd" clip-rule="evenodd" d="M391.942 484L393.041 462.314H416.127C427.073 469.543 441.364 475.394 459 479.869V484H417.226L402.935 481.935V484H391.942Z" fill="#464343"/>
<path fill-rule="evenodd" clip-rule="evenodd" d="M397.176 224.128L432.242 248.317C441.753 250.728 449.699 253.727 456.08 257.315C457.587 258.606 459.409 261.219 453.158 260.767C446.906 260.315 440.309 260.105 439.447 262.107C438.584 264.11 442.367 266.506 440.624 269.208C439.461 271.01 433.97 266.492 424.149 255.655L389.424 242.129L397.176 224.128ZM262.538 224.963L285.511 225.048C271.327 268.063 263.669 290.886 262.538 293.518C259.995 299.44 265.378 308.459 267.68 313.305C260.182 316.457 260.981 304.786 251.523 308.919C242.891 312.692 236.324 319.528 226.35 313.747C225.124 313.036 223.78 310.36 227.027 308.269C235.115 303.059 246.771 293.94 248.346 290.939C250.494 286.846 255.225 264.854 262.538 224.963Z" fill="#B28B67"/>
<path fill-rule="evenodd" clip-rule="evenodd" d="M327.824 134.41L337.33 132.879C372.6 161.5 387.086 216.484 430.318 245.611L419.913 257.728C344.913 249.004 326.324 181.937 327.824 134.41Z" fill="#EE6C4D"/>
<path fill-rule="evenodd" clip-rule="evenodd" d="M286.385 246.629C324.5 246.629 352.537 246.629 370.496 246.629C374.339 246.629 373.615 241.416 373.059 238.785C366.647 208.424 341.616 175.696 341.616 132.478L317.355 128.904C297.287 159.222 290.348 196.549 286.385 246.629Z" fill="#DDE3E9"/>
<path fill-rule="evenodd" clip-rule="evenodd" d="M287.061 158.705C283.537 157.754 280.747 155.534 278.69 152.048C269.822 137.017 273.025 128.741 282.501 126.021C291.978 123.301 300.429 128.904 315.528 128.904C316.349 128.904 317.101 128.953 317.784 129.049L325.38 129.456C347.171 198.832 353.181 245.118 343.409 268.315H277.208C273.285 276.907 269.532 284.135 265.947 290.001H247.909C246.211 238.437 259.262 194.671 287.061 158.705Z" fill="#EE6C4D"/>
<path fill-rule="evenodd" clip-rule="evenodd" d="M291.623 232.685C293.705 249.049 297.089 260.926 301.775 268.315H277.208C281.783 258.293 286.588 246.416 291.623 232.685H291.623Z" fill="black" fill-opacity="0.1"/>
<g clip-path="url(#clip2)">
<path d="M299.244 81.386L299.243 81.3842L305.798 78.175L305.8 78.1783C308.22 77.0422 311.361 77.159 314.796 78.8082C322.441 82.4775 328.638 92.3215 328.638 100.795C328.638 105.424 326.786 108.682 323.862 110.092L323.863 110.095L316.899 113.482L316.898 113.48C314.474 114.631 311.321 114.52 307.872 112.864C300.227 109.195 294.03 99.3508 294.03 90.877C294.031 86.021 296.068 82.6727 299.244 81.386Z" fill="url(#paint0_linear)"/>
<path d="M316.229 113.756C322.337 111.592 323.56 102.561 318.959 93.585C314.359 84.6089 305.679 79.0863 299.571 81.25C293.463 83.4138 292.24 92.4445 296.841 101.421C301.441 110.397 310.121 115.919 316.229 113.756Z" fill="#594A8E"/>
<path d="M295.317 87.245L295.316 87.2436L299.648 85.1298L299.65 85.1323C301.567 84.2321 304.056 84.3246 306.778 85.6315C312.835 88.5387 317.745 96.3387 317.745 103.053C317.745 106.721 316.278 109.302 313.961 110.419L313.962 110.421L309.306 112.676L309.305 112.675C307.384 113.587 304.886 113.499 302.152 112.187C296.096 109.28 291.185 101.48 291.185 94.7652C291.185 90.9174 292.8 88.2644 295.317 87.245Z" fill="url(#paint1_linear)"/>
<path d="M308.783 112.891C313.622 111.176 314.591 104.021 310.946 96.9087C307.301 89.7964 300.423 85.4207 295.583 87.1351C290.743 88.8495 289.775 96.005 293.42 103.117C297.065 110.229 303.943 114.605 308.783 112.891Z" fill="#FF9B21"/>
<path d="M304.35 110.487C307.826 109.256 308.522 104.116 305.904 99.0072C303.286 93.8984 298.345 90.7552 294.869 91.9867C291.392 93.2182 290.697 98.3581 293.315 103.467C295.933 108.576 300.874 111.719 304.35 110.487Z" fill="#AB2C37"/>
<path d="M350.735 46.0371L337.616 39.7062C332.857 37.4261 327.18 37.4315 322.427 39.7206C309.964 45.7245 302.221 56.8937 302.221 68.8697V80.306L302.296 80.3419C304.228 80.1337 306.431 80.5471 308.77 81.6699C311.131 82.8035 313.353 84.5273 315.299 86.6169L315.34 86.6369L319.65 84.568V75.2005C319.65 64.4985 326.569 54.5172 337.707 49.1521C338.602 48.721 339.544 48.406 340.507 48.2013C340.766 48.9805 340.905 49.7979 340.905 50.6395V61.6419C342.851 61.4188 345.075 61.8295 347.438 62.9636C349.822 64.1081 352.065 65.8534 354.024 67.9701V68.0028H354.16L358.334 65.9993V56.9705C358.334 52.4043 355.493 48.3171 350.735 46.0371V46.0371Z" fill="url(#paint2_linear)"/>
<path d="M354.024 56.9705C354.024 53.7011 351.99 50.7746 348.583 49.142C345.895 47.854 342.798 47.5889 339.939 48.3377C340.127 48.2885 340.316 48.2421 340.507 48.2016C340.766 48.9809 340.905 49.7983 340.905 50.6398V61.6422C342.851 61.4191 345.075 61.8298 347.438 62.9639C349.822 64.1084 352.066 65.8537 354.024 67.9704V56.9705H354.024Z" fill="url(#paint3_linear)"/>
<path d="M319.65 75.2005C319.65 64.4985 326.569 54.5172 337.707 49.1521C341.11 47.513 345.175 47.5094 348.582 49.1418C351.99 50.7744 354.024 53.701 354.024 56.9703V68.0028H354.16L358.334 65.9993V56.9705C358.334 52.4044 355.493 48.3171 350.735 46.0372C345.976 43.7571 340.299 43.7625 335.546 46.0516C323.083 52.0555 315.34 63.2247 315.34 75.2007V86.637L319.65 84.5681L319.65 75.2005Z" fill="#FF9B21"/>
</g>
<defs>
<linearGradient id="paint0_linear" x1="313.99" y1="99.6614" x2="307.129" y2="85.3673" gradientUnits="userSpaceOnUse">
<stop stop-color="#594A8E"/>
<stop offset="1" stop-color="#A996EB"/>
</linearGradient>
<linearGradient id="paint1_linear" x1="306.569" y1="101.938" x2="301.135" y2="90.6177" gradientUnits="userSpaceOnUse">
<stop stop-color="#A42C4A"/>
<stop offset="1" stop-color="#FF433F"/>
</linearGradient>
<linearGradient id="paint2_linear" x1="322.232" y1="74.5228" x2="330.656" y2="56.9727" gradientUnits="userSpaceOnUse">
<stop stop-color="#EE6C4D"/>
<stop offset="0.0001" stop-color="#FF7A85"/>
<stop offset="0.0002" stop-color="#EE6C4D"/>
</linearGradient>
<linearGradient id="paint3_linear" x1="349.237" y1="50.3787" x2="346.3" y2="65.0262" gradientUnits="userSpaceOnUse">
<stop stop-color="#EE6C4D"/>
<stop offset="0.9072" stop-color="#FF7580"/>
<stop offset="1" stop-color="#FF7A85"/>
</linearGradient>
<clipPath id="clip0">
<rect width="218" height="206" fill="white" transform="matrix(-1 0 0 1 643 110)"/>
</clipPath>
<clipPath id="clip1">
<rect width="336" height="452" fill="white" transform="translate(0 32)"/>
</clipPath>
<clipPath id="clip2">
<rect width="91.7069" height="76.2452" fill="white" transform="translate(283.977 38)"/>
</clipPath>
</defs>
</svg>
