<svg width="363" height="113" viewBox="0 0 363 113" fill="none" xmlns="http://www.w3.org/2000/svg">
<path d="M7.92188 89V20.75H30.2344C37.6406 20.75 43.2031 22.2813 46.9219 25.3438C50.6719 28.4062 52.5469 32.9375 52.5469 38.9375C52.5469 42.125 51.6406 44.9531 49.8281 47.4219C48.0156 49.8594 45.5469 51.75 42.4219 53.0938C46.1094 54.125 49.0156 56.0938 51.1406 59C53.2969 61.875 54.375 65.3125 54.375 69.3125C54.375 75.4375 52.3906 80.25 48.4219 83.75C44.4531 87.25 38.8438 89 31.5938 89H7.92188ZM16.9219 57.0781V81.6406H31.7812C35.9688 81.6406 39.2656 80.5625 41.6719 78.4062C44.1094 76.2188 45.3281 73.2188 45.3281 69.4062C45.3281 61.1875 40.8594 57.0781 31.9219 57.0781H16.9219ZM16.9219 49.8594H30.5156C34.4531 49.8594 37.5938 48.875 39.9375 46.9062C42.3125 44.9375 43.5 42.2656 43.5 38.8906C43.5 35.1406 42.4062 32.4219 40.2188 30.7344C38.0312 29.0156 34.7031 28.1562 30.2344 28.1562H16.9219V49.8594ZM87.4219 89.9375C80.5469 89.9375 74.9531 87.6875 70.6406 83.1875C66.3281 78.6562 64.1719 72.6094 64.1719 65.0469V63.4531C64.1719 58.4219 65.125 53.9375 67.0312 50C68.9688 46.0312 71.6562 42.9375 75.0938 40.7188C78.5625 38.4688 82.3125 37.3438 86.3438 37.3438C92.9375 37.3438 98.0625 39.5156 101.719 43.8594C105.375 48.2031 107.203 54.4219 107.203 62.5156V66.125H72.8438C72.9688 71.125 74.4219 75.1719 77.2031 78.2656C80.0156 81.3281 83.5781 82.8594 87.8906 82.8594C90.9531 82.8594 93.5469 82.2344 95.6719 80.9844C97.7969 79.7344 99.6562 78.0781 101.25 76.0156L106.547 80.1406C102.297 86.6719 95.9219 89.9375 87.4219 89.9375ZM86.3438 44.4688C82.8438 44.4688 79.9062 45.75 77.5312 48.3125C75.1562 50.8438 73.6875 54.4062 73.125 59H98.5312V58.3438C98.2812 53.9375 97.0938 50.5312 94.9688 48.125C92.8438 45.6875 89.9688 44.4688 86.3438 44.4688ZM148.594 89C148.094 88 147.688 86.2188 147.375 83.6562C143.344 87.8438 138.531 89.9375 132.938 89.9375C127.938 89.9375 123.828 88.5312 120.609 85.7188C117.422 82.875 115.828 79.2812 115.828 74.9375C115.828 69.6562 117.828 65.5625 121.828 62.6562C125.859 59.7188 131.516 58.25 138.797 58.25H147.234V54.2656C147.234 51.2344 146.328 48.8281 144.516 47.0469C142.703 45.2344 140.031 44.3281 136.5 44.3281C133.406 44.3281 130.812 45.1094 128.719 46.6719C126.625 48.2344 125.578 50.125 125.578 52.3438H116.859C116.859 49.8125 117.75 47.375 119.531 45.0312C121.344 42.6562 123.781 40.7812 126.844 39.4062C129.938 38.0312 133.328 37.3438 137.016 37.3438C142.859 37.3438 147.438 38.8125 150.75 41.75C154.062 44.6562 155.781 48.6719 155.906 53.7969V77.1406C155.906 81.7969 156.5 85.5 157.688 88.25V89H148.594ZM134.203 82.3906C136.922 82.3906 139.5 81.6875 141.938 80.2812C144.375 78.875 146.141 77.0469 147.234 74.7969V64.3906H140.438C129.812 64.3906 124.5 67.5 124.5 73.7188C124.5 76.4375 125.406 78.5625 127.219 80.0938C129.031 81.625 131.359 82.3906 134.203 82.3906ZM181.266 26V38.2812H190.734V44.9844H181.266V76.4375C181.266 78.4688 181.688 80 182.531 81.0312C183.375 82.0312 184.812 82.5312 186.844 82.5312C187.844 82.5312 189.219 82.3438 190.969 81.9688V89C188.688 89.625 186.469 89.9375 184.312 89.9375C180.438 89.9375 177.516 88.7656 175.547 86.4219C173.578 84.0781 172.594 80.75 172.594 76.4375V44.9844H163.359V38.2812H172.594V26H181.266ZM230.438 75.5469C230.438 73.2031 229.547 71.3906 227.766 70.1094C226.016 68.7969 222.938 67.6719 218.531 66.7344C214.156 65.7969 210.672 64.6719 208.078 63.3594C205.516 62.0469 203.609 60.4844 202.359 58.6719C201.141 56.8594 200.531 54.7031 200.531 52.2031C200.531 48.0469 202.281 44.5312 205.781 41.6562C209.312 38.7812 213.812 37.3438 219.281 37.3438C225.031 37.3438 229.688 38.8281 233.25 41.7969C236.844 44.7656 238.641 48.5625 238.641 53.1875H229.922C229.922 50.8125 228.906 48.7656 226.875 47.0469C224.875 45.3281 222.344 44.4688 219.281 44.4688C216.125 44.4688 213.656 45.1562 211.875 46.5312C210.094 47.9062 209.203 49.7031 209.203 51.9219C209.203 54.0156 210.031 55.5938 211.688 56.6562C213.344 57.7188 216.328 58.7344 220.641 59.7031C224.984 60.6719 228.5 61.8281 231.188 63.1719C233.875 64.5156 235.859 66.1406 237.141 68.0469C238.453 69.9219 239.109 72.2188 239.109 74.9375C239.109 79.4688 237.297 83.1094 233.672 85.8594C230.047 88.5781 225.344 89.9375 219.562 89.9375C215.5 89.9375 211.906 89.2188 208.781 87.7812C205.656 86.3438 203.203 84.3438 201.422 81.7812C199.672 79.1875 198.797 76.3906 198.797 73.3906H207.469C207.625 76.2969 208.781 78.6094 210.938 80.3281C213.125 82.0156 216 82.8594 219.562 82.8594C222.844 82.8594 225.469 82.2031 227.438 80.8906C229.438 79.5469 230.438 77.7656 230.438 75.5469Z" fill="#EE6C4D"/>
<path d="M301.969 20.75V67.1562C301.938 73.5938 299.906 78.8594 295.875 82.9531C291.875 87.0469 286.438 89.3438 279.562 89.8438L277.172 89.9375C269.703 89.9375 263.75 87.9219 259.312 83.8906C254.875 79.8594 252.625 74.3125 252.562 67.25V20.75H261.469V66.9688C261.469 71.9062 262.828 75.75 265.547 78.5C268.266 81.2188 272.141 82.5781 277.172 82.5781C282.266 82.5781 286.156 81.2188 288.844 78.5C291.562 75.7812 292.922 71.9531 292.922 67.0156V20.75H301.969ZM357.656 64.2031C357.656 71.9219 355.891 78.1406 352.359 82.8594C348.828 87.5781 344.047 89.9375 338.016 89.9375C331.859 89.9375 327.016 87.9844 323.484 84.0781V108.5H314.812V38.2812H322.734L323.156 43.9062C326.688 39.5312 331.594 37.3438 337.875 37.3438C343.969 37.3438 348.781 39.6406 352.312 44.2344C355.875 48.8281 357.656 55.2188 357.656 63.4062V64.2031ZM348.984 63.2188C348.984 57.5 347.766 52.9844 345.328 49.6719C342.891 46.3594 339.547 44.7031 335.297 44.7031C330.047 44.7031 326.109 47.0312 323.484 51.6875V75.9219C326.078 80.5469 330.047 82.8594 335.391 82.8594C339.547 82.8594 342.844 81.2188 345.281 77.9375C347.75 74.625 348.984 69.7188 348.984 63.2188Z" fill="#D9D9D9"/>
</svg>
