<svg width="264" height="276" viewBox="0 0 264 276" fill="none" xmlns="http://www.w3.org/2000/svg">
<rect width="238.071" height="139.917" transform="translate(20 14)" fill="white"/>
<path d="M129.036 118.893C129.036 122.126 131.276 124.75 134.036 124.75C136.796 124.75 139.036 122.126 139.036 118.893V48.6071C139.036 45.374 136.796 42.75 134.036 42.75C131.276 42.75 129.036 45.374 129.036 48.6071V118.893Z" fill="#D9D9D9"/>
<path d="M104.036 106.95V60.55C104.036 57.3484 101.796 54.75 99.0357 54.75C96.2757 54.75 94.0357 57.3484 94.0357 60.55V106.95C94.0357 110.152 96.2757 112.75 99.0357 112.75C101.796 112.75 104.036 110.152 104.036 106.95Z" fill="#D9D9D9"/>
<path d="M65.0357 101.75C67.7957 101.75 70.0357 99.1367 70.0357 95.9167V72.5833C70.0357 69.3633 67.7957 66.75 65.0357 66.75C62.2757 66.75 60.0357 69.3633 60.0357 72.5833V95.9167C60.0357 99.1367 62.2757 101.75 65.0357 101.75Z" fill="#D9D9D9"/>
<path d="M174.036 106.95V60.55C174.036 57.3484 171.796 54.75 169.036 54.75C166.276 54.75 164.036 57.3484 164.036 60.55V106.95C164.036 110.152 166.276 112.75 169.036 112.75C171.796 112.75 174.036 110.152 174.036 106.95Z" fill="#D9D9D9"/>
<path d="M204.036 66.75C201.276 66.75 199.036 69.3633 199.036 72.5833V95.9167C199.036 99.1367 201.276 101.75 204.036 101.75C206.796 101.75 209.036 99.1367 209.036 95.9167V72.5833C209.036 69.3633 206.796 66.75 204.036 66.75Z" fill="#D9D9D9"/>
<g filter="url(#filter0_d)">
<path d="M132.5 131C103.55 131 80 154.776 80 184C80 213.224 103.55 237 132.5 237C161.45 237 185 213.224 185 184C185 154.776 161.45 131 132.5 131ZM153.371 185.857L122.746 205.732C122.387 205.967 121.973 206.083 121.563 206.083C121.204 206.083 120.84 205.993 120.516 205.814C119.811 205.426 119.375 204.684 119.375 203.875V164.125C119.375 163.316 119.811 162.574 120.516 162.186C121.208 161.802 122.075 161.826 122.746 162.268L153.371 182.143C153.995 182.549 154.375 183.25 154.375 184C154.375 184.75 153.995 185.451 153.371 185.857Z" fill="#EE6C4D"/>
</g>
<g clip-path="url(#clip0)">
<path d="M132.5 0C62.7477 0 6 56.5248 6 126V183.75C6 186.649 8.57456 189 11.7502 189H29.0002V210C29.0002 221.582 39.3152 231 52.0004 231H69.2504C72.4287 231 75.0006 228.652 75.0006 225.75V131.25C75.0006 128.348 72.4287 126 69.2504 126H52.0004C39.3157 126 29.0002 135.418 29.0002 147V126C29.0002 68.1016 75.4324 21.0002 132.5 21.0002C189.568 21.0002 236 68.1016 236 126V147C236 135.418 225.685 126 213 126H195.75C192.572 126 190 128.348 190 131.25V225.75C190 228.652 192.572 231 195.75 231H213C225.685 231 236 221.582 236 210V189H253.25C256.426 189 259.001 186.649 259.001 183.75V126C259 56.5248 202.253 0 132.5 0Z" fill="#EE6C4D"/>
</g>
<defs>
<filter id="filter0_d" x="76" y="131" width="113" height="114" filterUnits="userSpaceOnUse" color-interpolation-filters="sRGB">
<feFlood flood-opacity="0" result="BackgroundImageFix"/>
<feColorMatrix in="SourceAlpha" type="matrix" values="0 0 0 0 0 0 0 0 0 0 0 0 0 0 0 0 0 0 127 0"/>
<feOffset dy="4"/>
<feGaussianBlur stdDeviation="2"/>
<feColorMatrix type="matrix" values="0 0 0 0 0 0 0 0 0 0 0 0 0 0 0 0 0 0 0.25 0"/>
<feBlend mode="normal" in2="BackgroundImageFix" result="effect1_dropShadow"/>
<feBlend mode="normal" in="SourceGraphic" in2="effect1_dropShadow" result="shape"/>
</filter>
<clipPath id="clip0">
<rect width="253" height="231" fill="white" transform="translate(6)"/>
</clipPath>
</defs>
</svg>
