<svg width="133" height="80" viewBox="0 0 133 80" fill="none" xmlns="http://www.w3.org/2000/svg">
<path d="M31.2794 20.8572H56.2808V22.8445H33.5712V37.8004H54.9268V39.7874H33.5712V56.2076H56.5413V58.1947H31.2794V20.8572ZM58.5208 20.8572H61.1771L72.9485 37.2774L84.9804 20.857L101.346 0L74.4589 39.0032L88.3139 58.1947H85.5533L72.9485 40.7288L60.2914 58.1947H57.5831L71.5422 39.003L58.5205 20.8572H58.5208ZM89.3035 22.8445V20.857H117.795V22.8443H104.669V58.1944H102.377V22.8445H89.3035V22.8445ZM0.00170898 20.857H2.86643L42.3693 79.9697L26.0449 58.1944L2.39757 23.681L2.29349 58.195H0.00170898V20.857ZM117.564 55.6075C117.096 55.6075 116.744 55.2451 116.744 54.7759C116.744 54.3073 117.096 53.9443 117.564 53.9443C118.038 53.9443 118.383 54.3071 118.383 54.7759C118.383 55.2448 118.038 55.6075 117.564 55.6075ZM119.816 53.4198H121.042C121.059 54.0839 121.544 54.5305 122.257 54.5305C123.054 54.5305 123.506 54.0505 123.506 53.1518V47.4586H124.755V53.1573C124.755 54.7759 123.818 55.7082 122.268 55.7082C120.813 55.7082 119.816 54.8039 119.816 53.4195V53.4198ZM126.388 53.3473H127.625C127.731 54.1118 128.478 54.5973 129.554 54.5973C130.557 54.5973 131.293 54.0782 131.293 53.3639C131.293 52.75 130.825 52.3816 129.76 52.1305L128.723 51.8794C127.268 51.5386 126.605 50.8355 126.605 49.6523C126.605 48.218 127.776 47.2634 129.532 47.2634C131.165 47.2634 132.358 48.2177 132.43 49.5741H131.215C131.098 48.8318 130.451 48.3684 129.515 48.3684C128.528 48.3684 127.871 48.843 127.871 49.5684C127.871 50.1432 128.294 50.4728 129.342 50.7182L130.228 50.9359C131.878 51.3212 132.558 51.9909 132.558 53.2021C132.558 54.7425 131.366 55.7082 129.459 55.7082C127.676 55.7082 126.477 54.7871 126.388 53.3471V53.3473Z" fill="black"/>
</svg>
