<svg width="80" height="80" viewBox="0 0 80 80" fill="none" xmlns="http://www.w3.org/2000/svg">
<path d="M40 46.1851C43.4518 46.1851 46.25 43.3868 46.25 39.9351C46.25 36.4833 43.4518 33.6851 40 33.6851C36.5482 33.6851 33.75 36.4833 33.75 39.9351C33.75 43.3868 36.5482 46.1851 40 46.1851Z" fill="#00D8FF"/>
<path d="M40 54.2651C32.4878 54.4468 24.9945 53.4342 17.8 51.2651C14.4766 50.2115 11.3768 48.5519 8.6575 46.3701C7.61983 45.6247 6.75568 44.6637 6.12436 43.5529C5.49303 42.4422 5.10947 41.208 5 39.9351C5 35.8026 9.54 31.7526 17.145 29.1026C24.5318 26.7544 32.2498 25.6164 40 25.7326C47.6468 25.6257 55.2614 26.7432 62.555 29.0426C65.7557 30.063 68.7503 31.6424 71.4 33.7076C72.4199 34.4182 73.2711 35.3444 73.8932 36.4206C74.5154 37.4967 74.8932 38.6966 75 39.9351C75 44.2301 69.925 48.5826 61.75 51.2876C54.6948 53.386 47.3596 54.3902 40 54.2651V54.2651ZM40 28.7226C32.5853 28.6234 25.2021 29.7053 18.1275 31.9276C11.1275 34.3701 7.99 37.7101 7.99 39.9276C7.99 42.2476 11.3625 45.8951 18.7675 48.4276C25.6502 50.4922 32.8165 51.4533 40 51.2751C47.041 51.401 54.0598 50.4483 60.8125 48.4501C68.5 45.9026 72 42.2501 72 39.9351C71.8739 39.1406 71.5844 38.381 71.1497 37.7041C70.7151 37.0272 70.1449 36.4479 69.475 36.0026C67.1044 34.1704 64.4292 32.7707 61.5725 31.8676C54.5951 29.6769 47.3124 28.6152 40 28.7226V28.7226Z" fill="#00D8FF"/>
<path d="M25.8 71.1076C24.6338 71.1343 23.4813 70.8514 22.46 70.2876C18.88 68.2226 17.64 62.2676 19.1425 54.3551C20.7991 46.7828 23.6695 39.5283 27.6425 32.8726C31.3693 26.1953 36.1405 20.1573 41.775 14.9876C44.2579 12.7243 47.1222 10.9189 50.235 9.65505C51.3609 9.1274 52.5891 8.85388 53.8325 8.85388C55.0759 8.85388 56.3041 9.1274 57.43 9.65505C61.1525 11.8001 62.385 18.3701 60.6475 26.8026C58.9397 33.964 56.1439 40.8211 52.3575 47.1351C48.7618 53.7334 44.1409 59.7189 38.6675 64.8676C36.0945 67.2195 33.1083 69.0749 29.86 70.3401C28.5596 70.8227 27.1869 71.0822 25.8 71.1076V71.1076ZM30.2325 34.3576C26.4427 40.7309 23.6917 47.6668 22.0825 54.9051C20.7 62.1926 22.0275 66.5751 23.9575 67.6901C25.9575 68.8476 30.8125 67.7501 36.7075 62.6001C41.9326 57.6674 46.3431 51.9381 49.775 45.6251C53.4023 39.5888 56.0842 33.0329 57.7275 26.1851C59.3625 18.2476 57.95 13.3876 55.945 12.2326C55.1935 11.9446 54.3905 11.8157 53.5867 11.854C52.7828 11.8923 51.9957 12.097 51.275 12.4551C48.5042 13.5984 45.9568 15.2216 43.75 17.2501C38.3667 22.202 33.8092 27.9824 30.25 34.3726L30.2325 34.3576Z" fill="#00D8FF"/>
<path d="M54.1925 71.1399C50.805 71.1399 46.5025 69.0899 42.0225 65.2374C36.2892 60.0206 31.4374 53.9109 27.655 47.1449C23.7318 40.5808 20.8842 33.4313 19.22 25.9674C18.4983 22.6837 18.3645 19.2979 18.825 15.9674C18.9314 14.732 19.3076 13.5349 19.9271 12.4606C20.5465 11.3863 21.3941 10.461 22.41 9.74995C26.1275 7.59745 32.435 9.80995 38.8725 15.5249C44.224 20.5804 48.7685 26.4267 52.3475 32.8599C56.2682 39.2708 59.1458 46.2638 60.8725 53.5774C61.6253 56.9817 61.7414 60.4959 61.215 63.9424C61.0897 65.2135 60.6911 66.4424 60.0464 67.5449C59.4017 68.6474 58.5263 69.5975 57.48 70.3299C56.4754 70.8867 55.3408 71.1663 54.1925 71.1399V71.1399ZM30.2425 45.6399C33.8711 52.106 38.5057 57.9533 43.9725 62.9624C49.595 67.7999 54.055 68.8399 55.9725 67.7124C57.9725 66.5499 59.4475 61.8049 57.9275 54.1274C56.2622 47.1448 53.5022 40.4697 49.75 34.3499C46.3346 28.1928 41.9968 22.5946 36.8875 17.7499C30.8275 12.3699 25.9125 11.1674 23.91 12.3274C23.2859 12.8347 22.7737 13.4658 22.4058 14.1809C22.0378 14.8961 21.8222 15.6797 21.7725 16.4824C21.375 19.4527 21.5045 22.4697 22.155 25.3949C23.7557 32.5328 26.4868 39.369 30.245 45.6449L30.2425 45.6399Z" fill="#00D8FF"/>
</svg>
