<svg width="80" height="76" viewBox="0 0 80 76" fill="none" xmlns="http://www.w3.org/2000/svg">
<path d="M55.4371 52.9425C58.3396 52.695 60.5796 50.1425 60.4371 47.095C60.2796 44.0475 57.7796 41.6025 54.7471 41.6025H54.5371C53.0268 41.6566 51.5999 42.3082 50.5699 43.4141C49.5399 44.52 48.9913 45.9897 49.0446 47.5C49.1471 49.1025 49.7971 50.39 50.6971 51.34C47.1946 58.1375 41.9596 63.1275 34.0046 67.33C28.6671 70.1175 23.0271 71.1725 17.5346 70.4175C12.9371 69.78 9.34463 67.725 7.14463 64.4275C3.84713 59.4275 3.54713 54.05 6.29713 48.6475C8.29963 44.755 11.2971 41.9 13.2871 40.5075C12.689 38.8324 12.2234 37.113 11.8946 35.365C-2.89537 45.9525 -1.38537 60.445 3.10713 67.2825C6.45463 72.2825 13.2871 75.4725 20.7746 75.4725C22.7821 75.4725 24.8771 75.33 26.9221 74.82C39.9196 72.32 49.7496 64.5325 55.3846 53.05L55.4371 52.9425ZM73.2621 40.4575C65.5296 31.3675 54.1346 26.3675 41.1546 26.3675H39.4471C38.6146 24.53 36.6596 23.375 34.4596 23.375H34.3171C31.1671 23.375 28.7171 26.0825 28.8196 29.2225C28.9271 32.215 31.4621 34.715 34.5096 34.715H34.7596C35.8409 34.671 36.8868 34.3176 37.7731 33.6968C38.6594 33.0759 39.3489 32.2137 39.7596 31.2125H41.6071C49.3046 31.2125 56.5846 33.465 63.2371 37.855C68.3146 41.1975 71.9746 45.6025 74.0171 50.8475C75.8146 55.13 75.7096 59.3375 73.8596 62.84C71.0221 68.32 66.2171 71.2225 59.8896 71.2225C55.8921 71.2225 51.9996 69.9725 49.9921 69.075C48.7946 70.065 46.7896 71.7175 45.3421 72.7225C49.7446 74.7125 54.1846 75.86 58.4821 75.86C68.2221 75.86 75.4621 70.3775 78.2096 65.08C81.2021 59.09 80.9571 48.9975 73.3121 40.3525L73.2621 40.4575ZM21.6221 54.74C21.6905 56.2109 22.3195 57.5998 23.3801 58.6213C24.4407 59.6428 25.8522 60.2194 27.3246 60.2325H27.5221C28.2728 60.2147 29.0123 60.0469 29.6972 59.7392C30.3821 59.4314 30.9985 58.9898 31.5102 58.4403C32.022 57.8908 32.4187 57.2446 32.677 56.5396C32.9354 55.8346 33.0502 55.085 33.0146 54.335C33.0146 51.3375 30.4246 48.8375 27.3771 48.8375H27.1671C26.9746 48.8375 26.6746 48.8375 26.4146 48.945C22.2746 41.9525 20.5271 34.4525 21.1771 26.365C21.5696 20.2725 23.5746 14.985 27.1671 10.585C30.1646 6.8475 35.7996 4.985 39.6546 4.895C50.4371 4.685 54.9421 18.135 55.2821 23.475L60.2821 24.9725C59.1221 8.5925 48.9421 0 39.2021 0C30.0621 0 21.6221 6.64 18.2246 16.38C13.5871 29.3775 16.6346 41.85 22.3246 51.85C21.8321 52.4875 21.5321 53.6475 21.6221 54.74Z" fill="#764ABC"/>
</svg>
