<svg width="150" height="160" viewBox="0 0 150 160" fill="none" xmlns="http://www.w3.org/2000/svg">
<path d="M134.581 47.4113C134.676 48.8325 134.676 50.2541 134.676 51.6753C134.676 95.0253 103.744 144.975 47.2081 144.975C29.7905 144.975 13.6104 139.594 0 130.254C2.47471 130.558 4.85391 130.66 7.42383 130.66C21.7954 130.66 35.0253 125.483 45.59 116.65C32.0748 116.345 20.7486 106.904 16.8463 93.9088C18.75 94.2131 20.6534 94.4163 22.6523 94.4163C25.4124 94.4163 28.1728 94.01 30.7424 93.2997C16.6562 90.2538 6.09111 77.0559 6.09111 61.1169V60.7109C10.1836 63.1475 14.9429 64.6703 19.9869 64.8731C11.7064 58.9847 6.28154 48.9341 6.28154 37.5634C6.28154 31.4722 7.8041 25.8884 10.4692 21.0153C25.6025 40.9138 48.3501 53.9084 73.8574 55.33C73.3816 52.8934 73.096 50.3556 73.096 47.8175C73.096 29.7463 86.8017 15.0256 103.838 15.0256C112.69 15.0256 120.685 18.985 126.3 25.3809C133.248 23.9597 139.91 21.2184 145.812 17.4622C143.527 25.0766 138.673 31.4725 132.296 35.5331C138.483 34.8228 144.479 32.995 149.999 30.4572C145.812 36.9544 140.577 42.7409 134.581 47.4113V47.4113Z" fill="#1DA1F2"/>
</svg>
